<?xml version="1.0" encoding="UTF-8" standalone="no"?><!DOCTYPE svg PUBLIC "-//W3C//DTD SVG 1.1//EN" "http://www.w3.org/Graphics/SVG/1.1/DTD/svg11.dtd"><svg width="100%" height="100%" viewBox="0 0 27408 4540" version="1.1" xmlns="http://www.w3.org/2000/svg" xmlns:xlink="http://www.w3.org/1999/xlink" xml:space="preserve" xmlns:serif="http://www.serif.com/" style="fill-rule:evenodd;clip-rule:evenodd;stroke-linecap:square;stroke-miterlimit:1.5;"><rect id="Mesa-de-trabajo1" serif:id="Mesa de trabajo1" x="0" y="0" width="27407.4" height="4539.29" style="fill:none;"/><clipPath id="_clip1"><rect x="0" y="0" width="27407.4" height="4539.29"/></clipPath><g clip-path="url(#_clip1)"><g><path d="M6603.74,3955.51c-829.623,2.257 -1505,-669.459 -1507.26,-1499.08c-2.258,-829.623 669.458,-1505 1499.08,-1507.26c829.623,-2.257 1505.01,669.459 1507.26,1499.08c2.258,829.623 -669.458,1505 -1499.08,1507.26Z" style="fill:#727272;"/></g><g><path d="M11097.1,3955.51c-829.623,2.257 -1505.01,-669.459 -1507.26,-1499.08c-2.258,-829.623 669.458,-1505 1499.08,-1507.26c829.623,-2.257 1505.01,669.459 1507.26,1499.08c2.258,829.623 -669.458,1505 -1499.08,1507.26Z" style="fill:#727272;"/></g><g><path d="M16950.5,3946.35c-829.623,2.258 -1505,-669.458 -1507.26,-1499.08c-2.258,-829.623 669.458,-1505.01 1499.08,-1507.26c829.623,-2.258 1505.01,669.458 1507.26,1499.08c2.258,829.623 -669.458,1505.01 -1499.08,1507.26Z" style="fill:#727272;"/></g><g><path d="M22743.8,3939.1c-829.623,2.258 -1505,-669.458 -1507.26,-1499.08c-2.257,-829.623 669.459,-1505.01 1499.08,-1507.26c829.623,-2.258 1505,669.458 1507.26,1499.08c2.257,829.623 -669.459,1505.01 -1499.08,1507.26Z" style="fill:#727272;"/></g><path d="M12607.7,3959.03c415.785,-1.131 792.001,-170.938 1063.99,-444.408c271.986,-273.471 439.743,-650.605 438.611,-1066.39c-1.131,-415.785 -170.938,-792 -444.408,-1063.99c-273.471,-271.986 -650.605,-439.743 -1066.39,-438.611c-415.785,1.131 -792,170.938 -1063.99,444.408c-271.986,273.471 -439.743,650.605 -438.611,1066.39c1.131,415.785 170.938,792 444.409,1063.99c273.47,271.986 650.604,439.743 1066.39,438.611Zm-0.019,-7.053c-413.838,1.126 -789.206,-165.846 -1061.4,-436.559c-272.19,-270.713 -441.203,-645.167 -442.329,-1059.01c-1.126,-413.839 165.846,-789.207 436.559,-1061.4c270.713,-272.19 645.167,-441.203 1059.01,-442.329c413.839,-1.126 789.207,165.846 1061.4,436.559c272.19,270.713 441.203,645.167 442.329,1059.01c1.126,413.838 -165.846,789.207 -436.559,1061.4c-270.713,272.19 -645.167,441.203 -1059.01,442.329Z"/><text x="12715.4px" y="2674.64px" style="font-family:'LucidaGrande', 'Lucida Grande', sans-serif;font-weight:500;font-size:600px;">1</text><circle cx="12603.6" cy="2452.33" r="42.516" style="fill:#fff;"/><text x="13116.7px" y="2690.75px" style="font-family:'Montserrat-Light', 'Montserrat';font-weight:300;font-size:600px;">+</text><g><path d="M2527.26,3955.51c-829.623,2.257 -1505.01,-669.459 -1507.26,-1499.08c-2.258,-829.623 669.458,-1505 1499.08,-1507.26c829.623,-2.257 1505.01,669.459 1507.26,1499.08c2.258,829.623 -669.458,1505 -1499.08,1507.26Z" style="fill:#727272;"/></g><text x="8250.72px" y="2674.64px" style="font-family:'LucidaGrande', 'Lucida Grande', sans-serif;font-weight:500;font-size:600px;">1</text><circle cx="8110.3" cy="2452.33" r="42.516" style="fill:#fff;"/><text x="530.423px" y="2670.02px" style="font-family:'LucidaGrande', 'Lucida Grande', sans-serif;font-weight:500;font-size:600px;">0</text><text x="4628.84px" y="2693.65px" style="font-family:'LucidaGrande', 'Lucida Grande', sans-serif;font-weight:500;font-size:600px;">0</text><text x="9192.11px" y="2674.64px" style="font-family:'LucidaGrande', 'Lucida Grande', sans-serif;font-weight:500;font-size:600px;">0</text><text x="10597px" y="2649.76px" style="font-family:'LucidaGrande', 'Lucida Grande', sans-serif;font-weight:500;font-size:600px;">2</text><text x="10695.1px" y="3113.7px" style="font-family:'Montserrat-Light', 'Montserrat';font-weight:300;font-size:600px;">-</text><g><path d="M5104.47,2468.15l3006.36,0" style="fill:none;stroke:#ff7ae3;stroke-width:33.33px;"/><path d="M11128.4,2468.15l1475.76,0" style="fill:none;stroke:#ff7ae3;stroke-width:33.33px;"/><path d="M16981.8,2458.99l1475.76,0" style="fill:none;stroke:#ff7ae3;stroke-width:33.33px;"/><path d="M22775.2,2451.74l1475.76,0" style="fill:none;stroke:#ff7ae3;stroke-width:33.33px;"/><path d="M17709.8,1157.85l-772.575,1301.15" style="fill:none;stroke:#ff7ae3;stroke-width:33.33px;"/><path d="M23503.2,1150.6l0,2598.8" style="fill:none;stroke:#ff7ae3;stroke-width:33.33px;"/></g><path d="M18461.1,3949.88c415.785,-1.131 792.001,-170.938 1063.99,-444.409c271.987,-273.47 439.743,-650.604 438.612,-1066.39c-1.132,-415.785 -170.938,-792.001 -444.409,-1063.99c-273.47,-271.986 -650.605,-439.743 -1066.39,-438.612c-415.785,1.132 -792.001,170.938 -1063.99,444.409c-271.987,273.471 -439.743,650.605 -438.612,1066.39c1.132,415.784 170.938,792 444.409,1063.99c273.47,271.987 650.605,439.743 1066.39,438.612Zm-0.019,-7.053c-413.838,1.126 -789.206,-165.846 -1061.4,-436.559c-272.191,-270.713 -441.204,-645.167 -442.33,-1059.01c-1.126,-413.838 165.847,-789.206 436.56,-1061.4c270.713,-272.191 645.166,-441.203 1059.01,-442.33c413.838,-1.126 789.206,165.847 1061.4,436.56c272.191,270.713 441.204,645.167 442.33,1059.01c1.126,413.838 -165.847,789.206 -436.56,1061.4c-270.713,272.19 -645.166,441.203 -1059.01,442.329Z"/><path d="M24254.5,3939.1c-829.623,2.258 -1505,-669.458 -1507.26,-1499.08c-2.258,-829.623 669.458,-1505.01 1499.08,-1507.26c829.623,-2.258 1505.01,669.458 1507.26,1499.08c2.258,829.623 -669.458,1505.01 -1499.08,1507.26Z" style="fill:url(#_Linear2);"/><path d="M24254.5,3942.63c415.785,-1.132 792,-170.938 1063.99,-444.409c271.987,-273.471 439.743,-650.605 438.612,-1066.39c-1.131,-415.784 -170.938,-792 -444.409,-1063.99c-273.47,-271.987 -650.604,-439.743 -1066.39,-438.612c-415.785,1.132 -792.001,170.938 -1063.99,444.409c-271.986,273.47 -439.743,650.605 -438.612,1066.39c1.132,415.785 170.939,792.001 444.409,1063.99c273.471,271.986 650.605,439.743 1066.39,438.612Zm-0.019,-7.053c-413.839,1.126 -789.207,-165.847 -1061.4,-436.56c-272.19,-270.713 -441.203,-645.167 -442.329,-1059.01c-1.127,-413.838 165.846,-789.206 436.559,-1061.4c270.713,-272.191 645.167,-441.204 1059.01,-442.33c413.838,-1.126 789.206,165.847 1061.4,436.56c272.19,270.713 441.203,645.166 442.329,1059.01c1.126,413.838 -165.846,789.206 -436.559,1061.4c-270.713,272.191 -645.167,441.203 -1059.01,442.33Z"/><text x="26034.1px" y="2658.23px" style="font-family:'LucidaGrande', 'Lucida Grande', sans-serif;font-weight:500;font-size:600px;">4</text><text x="18568.8px" y="2665.48px" style="font-family:'LucidaGrande', 'Lucida Grande', sans-serif;font-weight:500;font-size:600px;">1</text><text x="24362.2px" y="2658.23px" style="font-family:'LucidaGrande', 'Lucida Grande', sans-serif;font-weight:500;font-size:600px;">1</text><circle cx="18457" cy="2443.18" r="42.516" style="fill:#fff;"/><circle cx="24250.4" cy="2435.93" r="42.516" style="fill:#fff;"/><text x="15052.1px" y="2665.48px" style="font-family:'LucidaGrande', 'Lucida Grande', sans-serif;font-weight:500;font-size:600px;">0</text><text x="20812.4px" y="2658.23px" style="font-family:'LucidaGrande', 'Lucida Grande', sans-serif;font-weight:500;font-size:600px;">0</text><text x="17882.1px" y="871.031px" style="font-family:'LucidaGrande', 'Lucida Grande', sans-serif;font-weight:500;font-size:600px;">3</text><text x="23306.1px" y="863.782px" style="font-family:'LucidaGrande', 'Lucida Grande', sans-serif;font-weight:500;font-size:600px;">3</text><text x="16400.6px" y="2613.13px" style="font-family:'LucidaGrande', 'Lucida Grande', sans-serif;font-weight:500;font-size:600px;">2</text><text x="22114.1px" y="2476.39px" style="font-family:'LucidaGrande', 'Lucida Grande', sans-serif;font-weight:500;font-size:600px;">2</text><text x="17437.5px" y="805.624px" style="font-family:'Montserrat-Light', 'Montserrat';font-weight:300;font-size:600px;">+</text><text x="22893.7px" y="802.165px" style="font-family:'Montserrat-Light', 'Montserrat';font-weight:300;font-size:600px;">+</text><text x="18970.1px" y="2681.59px" style="font-family:'Montserrat-Light', 'Montserrat';font-weight:300;font-size:600px;">+</text><text x="24763.4px" y="2674.35px" style="font-family:'Montserrat-Light', 'Montserrat';font-weight:300;font-size:600px;">+</text><text x="16479.3px" y="3173.38px" style="font-family:'Montserrat-Light', 'Montserrat';font-weight:300;font-size:600px;">-</text><text x="22192.8px" y="3036.64px" style="font-family:'Montserrat-Light', 'Montserrat';font-weight:300;font-size:600px;">-</text><path d="M22747.4,3945.28l1503.52,0" style="fill:none;stroke:#d98a8a;stroke-width:8.33px;stroke-dasharray:66.67,41.67,0,0;"/><path d="M22743.8,1130.65l0,3479.52" style="fill:none;stroke:#d98a8a;stroke-width:8.33px;stroke-dasharray:66.67,41.67,0,0;"/><path d="M24224.7,1130.65l0,3479.52" style="fill:none;stroke:#d98a8a;stroke-width:8.33px;stroke-dasharray:66.67,41.67,0,0;"/><path d="M25748.3,1130.65l0,3479.52" style="fill:none;stroke:#d98a8a;stroke-width:8.33px;stroke-dasharray:66.67,41.67,0,0;"/><text x="26511.9px" y="2718.77px" style="font-family:'Montserrat-Light', 'Montserrat';font-weight:300;font-size:600px;">-</text></g><defs><linearGradient id="_Linear2" x1="0" y1="0" x2="1" y2="0" gradientUnits="userSpaceOnUse" gradientTransform="matrix(-1491.98,1.82965e-13,-1.82077e-13,-1491.98,25723.4,2451.75)"><stop offset="0" style="stop-color:#000;stop-opacity:1"/><stop offset="0.47" style="stop-color:#c5c5c5;stop-opacity:0.33"/><stop offset="1" style="stop-color:#fff;stop-opacity:0.13"/></linearGradient></defs></svg>