<?xml version="1.0" encoding="UTF-8" standalone="no"?>
<!DOCTYPE svg PUBLIC "-//W3C//DTD SVG 1.1//EN" "http://www.w3.org/Graphics/SVG/1.1/DTD/svg11.dtd">
<svg width="100%" height="100%" viewBox="0 0 357 357" version="1.1" xmlns="http://www.w3.org/2000/svg" xmlns:xlink="http://www.w3.org/1999/xlink" xml:space="preserve" xmlns:serif="http://www.serif.com/" style="fill-rule:evenodd;clip-rule:evenodd;stroke-linejoin:round;stroke-miterlimit:2;">
    <g transform="matrix(1,0,0,1,-6353.56,-4141.43)">
        <g transform="matrix(2.45719,0,0,1.40873,-9014.46,-1628.38)">
            <g transform="matrix(0.481888,0,0,0.481888,3240.69,2122.52)">
                <g transform="matrix(0.136008,0,0,0.237233,4345.55,3624.14)">
                    <path d="M15135.5,1988.41C14831.7,1988.41 14556.5,2111.74 14357.2,2311.02C14157.9,2510.3 14034.6,2785.53 14034.6,3089.34C14034.6,3393.14 14157.9,3668.38 14357.2,3867.66C14556.5,4066.93 14831.7,4190.26 15135.5,4190.26C15439.3,4190.26 15714.6,4066.93 15913.8,3867.66C16113.1,3668.38 16236.5,3393.14 16236.5,3089.34C16236.5,2785.53 16113.1,2510.3 15913.8,2311.02C15714.6,2111.74 15439.3,1988.41 15135.5,1988.41ZM15135.5,1994.98C15437.5,1994.98 15711.1,2117.57 15909.2,2315.66C16107.3,2513.75 16229.9,2787.34 16229.9,3089.34C16229.9,3391.33 16107.3,3664.92 15909.2,3863.01C15711.1,4061.1 15437.5,4183.69 15135.5,4183.69C14833.5,4183.69 14559.9,4061.1 14361.9,3863.01C14163.8,3664.92 14041.2,3391.33 14041.2,3089.34C14041.2,2787.34 14163.8,2513.75 14361.9,2315.66C14559.9,2117.57 14833.5,1994.98 15135.5,1994.98Z"/>
                </g>
                <g transform="matrix(0.0340019,0,0,0.0593082,6001.43,4173.81)">
                    <path d="M15135.5,1978.56C14829,1978.56 14551.3,2102.99 14350.2,2304.05C14149.2,2505.11 14024.8,2782.81 14024.8,3089.34C14024.8,3395.87 14149.2,3673.56 14350.2,3874.62C14551.3,4075.69 14829,4200.11 15135.5,4200.11C15442.1,4200.11 15719.8,4075.69 15920.8,3874.62C16121.9,3673.56 16246.3,3395.87 16246.3,3089.34C16246.3,2782.81 16121.9,2505.11 15920.8,2304.05C15719.8,2102.99 15442.1,1978.56 15135.5,1978.56ZM15135.5,2004.84C15434.8,2004.84 15705.9,2126.33 15902.2,2322.63C16098.5,2518.94 16220,2790.06 16220,3089.34C16220,3388.61 16098.5,3659.74 15902.2,3856.04C15705.9,4052.35 15434.8,4173.84 15135.5,4173.84C14836.3,4173.84 14565.1,4052.35 14368.8,3856.04C14172.5,3659.74 14051,3388.61 14051,3089.34C14051,2790.06 14172.5,2518.94 14368.8,2322.63C14565.1,2126.33 14836.3,2004.84 15135.5,2004.84Z"/>
                </g>
                <g transform="matrix(0.0340019,0,0,0.0593082,5926.79,4173.81)">
                    <path d="M15135.5,1978.56C14829,1978.56 14551.3,2102.99 14350.2,2304.05C14149.2,2505.11 14024.8,2782.81 14024.8,3089.34C14024.8,3395.87 14149.2,3673.56 14350.2,3874.62C14551.3,4075.69 14829,4200.11 15135.5,4200.11C15442.1,4200.11 15719.8,4075.69 15920.8,3874.62C16121.9,3673.56 16246.3,3395.87 16246.3,3089.34C16246.3,2782.81 16121.9,2505.11 15920.8,2304.05C15719.8,2102.99 15442.1,1978.56 15135.5,1978.56ZM15135.5,2004.84C15434.8,2004.84 15705.9,2126.33 15902.2,2322.63C16098.5,2518.94 16220,2790.06 16220,3089.34C16220,3388.61 16098.5,3659.74 15902.2,3856.04C15705.9,4052.35 15434.8,4173.84 15135.5,4173.84C14836.3,4173.84 14565.1,4052.35 14368.8,3856.04C14172.5,3659.74 14051,3388.61 14051,3089.34C14051,2790.06 14172.5,2518.94 14368.8,2322.63C14565.1,2126.33 14836.3,2004.84 15135.5,2004.84Z"/>
                </g>
                <g transform="matrix(0.0340019,0,0,0.0593082,5852.14,4173.81)">
                    <path d="M15135.5,1978.56C14829,1978.56 14551.3,2102.99 14350.2,2304.05C14149.2,2505.11 14024.8,2782.81 14024.8,3089.34C14024.8,3395.87 14149.2,3673.56 14350.2,3874.62C14551.3,4075.69 14829,4200.11 15135.5,4200.11C15442.1,4200.11 15719.8,4075.69 15920.8,3874.62C16121.9,3673.56 16246.3,3395.87 16246.3,3089.34C16246.3,2782.81 16121.9,2505.11 15920.8,2304.05C15719.8,2102.99 15442.1,1978.56 15135.5,1978.56ZM15135.5,2004.84C15434.8,2004.84 15705.9,2126.33 15902.2,2322.63C16098.5,2518.94 16220,2790.06 16220,3089.34C16220,3388.61 16098.5,3659.74 15902.2,3856.04C15705.9,4052.35 15434.8,4173.84 15135.5,4173.84C14836.3,4173.84 14565.1,4052.35 14368.8,3856.04C14172.5,3659.74 14051,3388.61 14051,3089.34C14051,2790.06 14172.5,2518.94 14368.8,2322.63C14565.1,2126.33 14836.3,2004.84 15135.5,2004.84Z"/>
                </g>
                <g transform="matrix(0.0680091,0,0,0.118625,5300.1,3990.56)">
                    <path d="M15135.5,1985.13C14830.8,1985.13 14554.8,2108.82 14354.9,2308.7C14155,2508.57 14031.3,2784.62 14031.3,3089.34C14031.3,3394.05 14155,3670.1 14354.9,3869.98C14554.8,4069.85 14830.8,4193.54 15135.5,4193.54C15440.2,4193.54 15716.3,4069.85 15916.2,3869.98C16116,3670.1 16239.7,3394.05 16239.7,3089.34C16239.7,2784.62 16116,2508.57 15916.2,2308.7C15716.3,2108.82 15440.2,1985.13 15135.5,1985.13ZM15135.5,1998.27C15436.6,1998.27 15709.4,2120.49 15906.9,2317.99C16104.4,2515.48 16226.6,2788.25 16226.6,3089.34C16226.6,3390.43 16104.4,3663.19 15906.9,3860.69C15709.4,4058.18 15436.6,4180.41 15135.5,4180.41C14834.4,4180.41 14561.7,4058.18 14364.2,3860.69C14166.7,3663.19 14044.5,3390.43 14044.5,3089.34C14044.5,2788.25 14166.7,2515.48 14364.2,2317.99C14561.7,2120.49 14834.4,1998.27 15135.5,1998.27Z"/>
                </g>
                <g transform="matrix(0.0680091,0,0,0.118625,5374.74,3990.56)">
                    <path d="M15135.5,1985.13C14830.8,1985.13 14554.8,2108.82 14354.9,2308.7C14155,2508.57 14031.3,2784.62 14031.3,3089.34C14031.3,3394.05 14155,3670.1 14354.9,3869.98C14554.8,4069.85 14830.8,4193.54 15135.5,4193.54C15440.2,4193.54 15716.3,4069.85 15916.2,3869.98C16116,3670.1 16239.7,3394.05 16239.7,3089.34C16239.7,2784.62 16116,2508.57 15916.2,2308.7C15716.3,2108.82 15440.2,1985.13 15135.5,1985.13ZM15135.5,1998.27C15436.6,1998.27 15709.4,2120.49 15906.9,2317.99C16104.4,2515.48 16226.6,2788.25 16226.6,3089.34C16226.6,3390.43 16104.4,3663.19 15906.9,3860.69C15709.4,4058.18 15436.6,4180.41 15135.5,4180.41C14834.4,4180.41 14561.7,4058.18 14364.2,3860.69C14166.7,3663.19 14044.5,3390.43 14044.5,3089.34C14044.5,2788.25 14166.7,2515.48 14364.2,2317.99C14561.7,2120.49 14834.4,1998.27 15135.5,1998.27Z"/>
                </g>
                <g transform="matrix(0.0680091,0,0,0.118625,5449.39,3990.56)">
                    <path d="M15135.5,1985.13C14830.8,1985.13 14554.8,2108.82 14354.9,2308.7C14155,2508.57 14031.3,2784.62 14031.3,3089.34C14031.3,3394.05 14155,3670.1 14354.9,3869.98C14554.8,4069.85 14830.8,4193.54 15135.5,4193.54C15440.2,4193.54 15716.3,4069.85 15916.2,3869.98C16116,3670.1 16239.7,3394.05 16239.7,3089.34C16239.7,2784.62 16116,2508.57 15916.2,2308.7C15716.3,2108.82 15440.2,1985.13 15135.5,1985.13ZM15135.5,1998.27C15436.6,1998.27 15709.4,2120.49 15906.9,2317.99C16104.4,2515.48 16226.6,2788.25 16226.6,3089.34C16226.6,3390.43 16104.4,3663.19 15906.9,3860.69C15709.4,4058.18 15436.6,4180.41 15135.5,4180.41C14834.4,4180.41 14561.7,4058.18 14364.2,3860.69C14166.7,3663.19 14044.5,3390.43 14044.5,3089.34C14044.5,2788.25 14166.7,2515.48 14364.2,2317.99C14561.7,2120.49 14834.4,1998.27 15135.5,1998.27Z"/>
                </g>
                <g transform="matrix(0.0340019,0,0,0.0593082,5777.5,4173.81)">
                    <path d="M15135.5,1978.56C14829,1978.56 14551.3,2102.99 14350.2,2304.05C14149.2,2505.11 14024.8,2782.81 14024.8,3089.34C14024.8,3395.87 14149.2,3673.56 14350.2,3874.62C14551.3,4075.69 14829,4200.11 15135.5,4200.11C15442.1,4200.11 15719.8,4075.69 15920.8,3874.62C16121.9,3673.56 16246.3,3395.87 16246.3,3089.34C16246.3,2782.81 16121.9,2505.11 15920.8,2304.05C15719.8,2102.99 15442.1,1978.56 15135.5,1978.56ZM15135.5,2004.84C15434.8,2004.84 15705.9,2126.33 15902.2,2322.63C16098.5,2518.94 16220,2790.06 16220,3089.34C16220,3388.61 16098.5,3659.74 15902.2,3856.04C15705.9,4052.35 15434.8,4173.84 15135.5,4173.84C14836.3,4173.84 14565.1,4052.35 14368.8,3856.04C14172.5,3659.74 14051,3388.61 14051,3089.34C14051,2790.06 14172.5,2518.94 14368.8,2322.63C14565.1,2126.33 14836.3,2004.84 15135.5,2004.84Z"/>
                </g>
            </g>
        </g>
    </g>
</svg>
