<?xml version="1.0" encoding="UTF-8" standalone="no"?>
<!DOCTYPE svg PUBLIC "-//W3C//DTD SVG 1.1//EN" "http://www.w3.org/Graphics/SVG/1.1/DTD/svg11.dtd">
<svg width="100%" height="100%" viewBox="0 0 1415 322" version="1.1" xmlns="http://www.w3.org/2000/svg" xmlns:xlink="http://www.w3.org/1999/xlink" xml:space="preserve" xmlns:serif="http://www.serif.com/" style="fill-rule:evenodd;clip-rule:evenodd;stroke-linejoin:round;stroke-miterlimit:2;">
    <g transform="matrix(1,0,0,1,-7456.38,-4129.59)">
        <g transform="matrix(2.45719,0,0,1.40873,-9014.46,-1628.38)">
            <g transform="matrix(0.406968,0,0,0.709858,-35506.7,-70644.3)">
                <text x="104015px" y="105598px" style="font-family:'Montserrat-Light', 'Montserrat';font-weight:300;font-size:30px;fill:rgb(13,0,0);">D<tspan x="104041px 104051px 104071px 104094px 104116px 104139px 104165px 104175px " y="105598px 105598px 105598px 105598px 105598px 105598px 105598px 105598px ">ISCERNIR</tspan></text>
            </g>
            <g transform="matrix(0.406968,0,0,0.709858,-35371.2,-70644.3)">
                <text x="104027px" y="105598px" style="font-family:'Montserrat-Light', 'Montserrat';font-weight:300;font-size:30px;fill:rgb(13,0,0);">P<tspan x="104050px 104072px 104095px 104118px 104128px 104152px 104162px " y="105598px 105598px 105598px 105598px 105598px 105598px 105598px ">ERCIBIR</tspan></text>
            </g>
            <g transform="matrix(0.406968,0,0,0.709858,-35267.6,-70644.3)">
                <text x="104047px" y="105598px" style="font-family:'Montserrat-Light', 'Montserrat';font-weight:300;font-size:30px;fill:rgb(13,0,0);">T<tspan x="104065px 104088px 104111px 104131px 104154px 104175px 104201px 104227px 104249px " y="105598px 105598px 105598px 105598px 105598px 105598px 105598px 105598px 105598px ">RASCENDER</tspan></text>
            </g>
            <g transform="matrix(0.406968,0,0,0.709858,-35123.7,-70644.3)">
                <text x="104048px" y="105598px" style="font-family:'Montserrat-Light', 'Montserrat';font-weight:300;font-size:30px;fill:rgb(13,0,0);">H<tspan x="104074px 104097px 104120px 104141px " y="105598px 105598px 105598px 105598px ">ACER</tspan></text>
            </g>
            <g transform="matrix(0.406968,0,0,0.709858,-35485.1,-70685.5)">
                <text x="104041px" y="105604px" style="font-family:'Montserrat-Light', 'Montserrat';font-weight:300;font-size:48px;fill:rgb(13,0,0);">1</text>
            </g>
            <g transform="matrix(0.406968,0,0,0.709858,-35608.2,-70685.5)">
                <text x="104034px" y="105604px" style="font-family:'Montserrat-Light', 'Montserrat';font-weight:300;font-size:48px;fill:rgb(13,0,0);">0</text>
            </g>
            <g transform="matrix(0.406968,0,0,0.709858,-35349.9,-70685.5)">
                <text x="104036px" y="105604px" style="font-family:'Montserrat-Light', 'Montserrat';font-weight:300;font-size:48px;fill:rgb(13,0,0);">2</text>
            </g>
            <g transform="matrix(0.406968,0,0,0.709858,-35224.2,-70685.5)">
                <text x="104036px" y="105604px" style="font-family:'Montserrat-Light', 'Montserrat';font-weight:300;font-size:48px;fill:rgb(13,0,0);">3</text>
            </g>
            <g transform="matrix(0.406968,0,0,0.709858,-35101.3,-70685.5)">
                <text x="104034px" y="105604px" style="font-family:'Montserrat-Light', 'Montserrat';font-weight:300;font-size:48px;fill:rgb(13,0,0);">4</text>
            </g>
            <g transform="matrix(0.0311166,0,0,0.0542755,6772.68,3981.02)">
                <path d="M15135.5,1977.86C14828.8,1977.86 14550.9,2102.37 14349.7,2303.56C14148.6,2504.75 14024.1,2782.62 14024.1,3089.34C14024.1,3396.06 14148.6,3673.93 14349.7,3875.12C14550.9,4076.31 14828.8,4200.81 15135.5,4200.81C15442.2,4200.81 15720.1,4076.31 15921.3,3875.12C16122.5,3673.93 16247,3396.06 16247,3089.34C16247,2782.62 16122.5,2504.75 15921.3,2303.56C15720.1,2102.37 15442.2,1977.86 15135.5,1977.86ZM15135.5,2005.54C15434.6,2005.54 15705.6,2126.95 15901.7,2323.13C16097.9,2519.3 16219.3,2790.25 16219.3,3089.34C16219.3,3388.42 16097.9,3659.37 15901.7,3855.55C15705.6,4051.73 15434.6,4173.14 15135.5,4173.14C14836.4,4173.14 14565.5,4051.73 14369.3,3855.55C14173.1,3659.37 14051.7,3388.42 14051.7,3089.34C14051.7,2790.25 14173.1,2519.3 14369.3,2323.13C14565.5,2126.95 14836.4,2005.54 15135.5,2005.54Z"/>
            </g>
            <g transform="matrix(0.00777916,0,0,0.0135689,7151.52,4106.77)">
                <circle cx="15135.5" cy="3089.34" r="1097.64"/>
            </g>
            <g transform="matrix(0.00777916,0,0,0.0135689,7134.44,4106.77)">
                <circle cx="15135.5" cy="3089.34" r="1097.64"/>
            </g>
            <g transform="matrix(0.00777916,0,0,0.0135689,7117.36,4106.77)">
                <circle cx="15135.5" cy="3089.34" r="1097.64"/>
            </g>
            <g transform="matrix(0.00777916,0,0,0.0135689,7100.28,4106.77)">
                <circle cx="15135.5" cy="3089.34" r="1097.64"/>
            </g>
            <g transform="matrix(0.0311166,0,0,0.0542755,6525.42,3981.02)">
                <path d="M15135.5,1977.86C14828.8,1977.86 14550.9,2102.37 14349.7,2303.56C14148.6,2504.75 14024.1,2782.62 14024.1,3089.34C14024.1,3396.06 14148.6,3673.93 14349.7,3875.12C14550.9,4076.31 14828.8,4200.81 15135.5,4200.81C15442.2,4200.81 15720.1,4076.31 15921.3,3875.12C16122.5,3673.93 16247,3396.06 16247,3089.34C16247,2782.62 16122.5,2504.75 15921.3,2303.56C15720.1,2102.37 15442.2,1977.86 15135.5,1977.86ZM15135.5,2005.54C15434.6,2005.54 15705.6,2126.95 15901.7,2323.13C16097.9,2519.3 16219.3,2790.25 16219.3,3089.34C16219.3,3388.42 16097.9,3659.37 15901.7,3855.55C15705.6,4051.73 15434.6,4173.14 15135.5,4173.14C14836.4,4173.14 14565.5,4051.73 14369.3,3855.55C14173.1,3659.37 14051.7,3388.42 14051.7,3089.34C14051.7,2790.25 14173.1,2519.3 14369.3,2323.13C14565.5,2126.95 14836.4,2005.54 15135.5,2005.54Z"/>
            </g>
            <g transform="matrix(0.0311166,0,0,0.0542755,6649.82,3981.02)">
                <path d="M15135.5,1977.86C14828.8,1977.86 14550.9,2102.37 14349.7,2303.56C14148.6,2504.75 14024.1,2782.62 14024.1,3089.34C14024.1,3396.06 14148.6,3673.93 14349.7,3875.12C14550.9,4076.31 14828.8,4200.81 15135.5,4200.81C15442.2,4200.81 15720.1,4076.31 15921.3,3875.12C16122.5,3673.93 16247,3396.06 16247,3089.34C16247,2782.62 16122.5,2504.75 15921.3,2303.56C15720.1,2102.37 15442.2,1977.86 15135.5,1977.86ZM15135.5,2005.54C15434.6,2005.54 15705.6,2126.95 15901.7,2323.13C16097.9,2519.3 16219.3,2790.25 16219.3,3089.34C16219.3,3388.42 16097.9,3659.37 15901.7,3855.55C15705.6,4051.73 15434.6,4173.14 15135.5,4173.14C14836.4,4173.14 14565.5,4051.73 14369.3,3855.55C14173.1,3659.37 14051.7,3388.42 14051.7,3089.34C14051.7,2790.25 14173.1,2519.3 14369.3,2323.13C14565.5,2126.95 14836.4,2005.54 15135.5,2005.54Z"/>
            </g>
            <g transform="matrix(0.0155537,0,0,0.0271297,6743.89,4064.88)">
                <circle cx="15135.5" cy="3089.34" r="1097.64"/>
            </g>
            <g transform="matrix(0.0155537,0,0,0.0271297,6868.29,4064.88)">
                <path d="M15135.5,1964.02C14825,1964.02 14543.7,2090.07 14340,2293.77C14136.3,2497.46 14010.2,2778.8 14010.2,3089.34C14010.2,3399.88 14136.3,3681.21 14340,3884.91C14543.7,4088.6 14825,4214.66 15135.5,4214.66C15446.1,4214.66 15727.4,4088.6 15931.1,3884.91C16134.8,3681.21 16260.8,3399.88 16260.8,3089.34C16260.8,2778.8 16134.8,2497.46 15931.1,2293.77C15727.4,2090.07 15446.1,1964.02 15135.5,1964.02ZM15135.5,2019.38C15430.8,2019.38 15698.3,2139.24 15891.9,2332.92C16085.6,2526.59 16205.5,2794.08 16205.5,3089.34C16205.5,3384.6 16085.6,3652.09 15891.9,3845.76C15698.3,4039.43 15430.8,4159.29 15135.5,4159.29C14840.3,4159.29 14572.8,4039.43 14379.1,3845.76C14185.4,3652.09 14065.6,3384.6 14065.6,3089.34C14065.6,2794.08 14185.4,2526.59 14379.1,2332.92C14572.8,2139.24 14840.3,2019.38 15135.5,2019.38Z"/>
            </g>
            <g transform="matrix(0.0155537,0,0,0.0271297,6885.37,4064.88)">
                <path d="M15135.5,1964.02C14825,1964.02 14543.7,2090.07 14340,2293.77C14136.3,2497.46 14010.2,2778.8 14010.2,3089.34C14010.2,3399.88 14136.3,3681.21 14340,3884.91C14543.7,4088.6 14825,4214.66 15135.5,4214.66C15446.1,4214.66 15727.4,4088.6 15931.1,3884.91C16134.8,3681.21 16260.8,3399.88 16260.8,3089.34C16260.8,2778.8 16134.8,2497.46 15931.1,2293.77C15727.4,2090.07 15446.1,1964.02 15135.5,1964.02ZM15135.5,2019.38C15430.8,2019.38 15698.3,2139.24 15891.9,2332.92C16085.6,2526.59 16205.5,2794.08 16205.5,3089.34C16205.5,3384.6 16085.6,3652.09 15891.9,3845.76C15698.3,4039.43 15430.8,4159.29 15135.5,4159.29C14840.3,4159.29 14572.8,4039.43 14379.1,3845.76C14185.4,3652.09 14065.6,3384.6 14065.6,3089.34C14065.6,2794.08 14185.4,2526.59 14379.1,2332.92C14572.8,2139.24 14840.3,2019.38 15135.5,2019.38Z"/>
            </g>
            <g transform="matrix(0.0155537,0,0,0.0271297,7008.23,4064.88)">
                <path d="M15135.5,1964.02C14825,1964.02 14543.7,2090.07 14340,2293.77C14136.3,2497.46 14010.2,2778.8 14010.2,3089.34C14010.2,3399.88 14136.3,3681.21 14340,3884.91C14543.7,4088.6 14825,4214.66 15135.5,4214.66C15446.1,4214.66 15727.4,4088.6 15931.1,3884.91C16134.8,3681.21 16260.8,3399.88 16260.8,3089.34C16260.8,2778.8 16134.8,2497.46 15931.1,2293.77C15727.4,2090.07 15446.1,1964.02 15135.5,1964.02ZM15135.5,2019.38C15430.8,2019.38 15698.3,2139.24 15891.9,2332.92C16085.6,2526.59 16205.5,2794.08 16205.5,3089.34C16205.5,3384.6 16085.6,3652.09 15891.9,3845.76C15698.3,4039.43 15430.8,4159.29 15135.5,4159.29C14840.3,4159.29 14572.8,4039.43 14379.1,3845.76C14185.4,3652.09 14065.6,3384.6 14065.6,3089.34C14065.6,2794.08 14185.4,2526.59 14379.1,2332.92C14572.8,2139.24 14840.3,2019.38 15135.5,2019.38Z"/>
            </g>
            <g transform="matrix(0.0155537,0,0,0.0271297,6778.05,4064.88)">
                <circle cx="15135.5" cy="3089.34" r="1097.64"/>
            </g>
            <g transform="matrix(0.0155537,0,0,0.0271297,6902.46,4064.88)">
                <path d="M15135.5,1964.02C14825,1964.02 14543.7,2090.07 14340,2293.77C14136.3,2497.46 14010.2,2778.8 14010.2,3089.34C14010.2,3399.88 14136.3,3681.21 14340,3884.91C14543.7,4088.6 14825,4214.66 15135.5,4214.66C15446.1,4214.66 15727.4,4088.6 15931.1,3884.91C16134.8,3681.21 16260.8,3399.88 16260.8,3089.34C16260.8,2778.8 16134.8,2497.46 15931.1,2293.77C15727.4,2090.07 15446.1,1964.02 15135.5,1964.02ZM15135.5,2019.38C15430.8,2019.38 15698.3,2139.24 15891.9,2332.92C16085.6,2526.59 16205.5,2794.08 16205.5,3089.34C16205.5,3384.6 16085.6,3652.09 15891.9,3845.76C15698.3,4039.43 15430.8,4159.29 15135.5,4159.29C14840.3,4159.29 14572.8,4039.43 14379.1,3845.76C14185.4,3652.09 14065.6,3384.6 14065.6,3089.34C14065.6,2794.08 14185.4,2526.59 14379.1,2332.92C14572.8,2139.24 14840.3,2019.38 15135.5,2019.38Z"/>
            </g>
            <g transform="matrix(0.0311166,0,0,0.0542755,6390.76,3981.02)">
                <circle cx="15135.5" cy="3089.34" r="1097.64"/>
            </g>
            <g transform="matrix(0.0311166,0,0,0.0542755,6266.7,3981.02)">
                <path d="M15135.5,1986.16C14831.1,1986.16 14555.3,2109.74 14355.6,2309.43C14155.9,2509.11 14032.4,2784.91 14032.4,3089.34C14032.4,3393.77 14155.9,3669.56 14355.6,3869.25C14555.3,4068.93 14831.1,4192.51 15135.5,4192.51C15440,4192.51 15715.8,4068.93 15915.4,3869.25C16115.1,3669.56 16238.7,3393.77 16238.7,3089.34C16238.7,2784.91 16115.1,2509.11 15915.4,2309.43C15715.8,2109.74 15440,1986.16 15135.5,1986.16ZM15135.5,1997.23C15436.9,1997.23 15709.9,2119.57 15907.6,2317.26C16105.3,2514.94 16227.6,2787.96 16227.6,3089.34C16227.6,3390.71 16105.3,3663.74 15907.6,3861.42C15709.9,4059.1 15436.9,4181.44 15135.5,4181.44C14834.2,4181.44 14561.1,4059.1 14363.4,3861.42C14165.8,3663.74 14043.4,3390.71 14043.4,3089.34C14043.4,2787.96 14165.8,2514.94 14363.4,2317.26C14561.1,2119.57 14834.2,1997.23 15135.5,1997.23Z"/>
            </g>
        </g>
    </g>
</svg>
