<?xml version="1.0" encoding="UTF-8" standalone="no"?><!DOCTYPE svg PUBLIC "-//W3C//DTD SVG 1.1//EN" "http://www.w3.org/Graphics/SVG/1.1/DTD/svg11.dtd"><svg width="100%" height="100%" viewBox="0 0 13668 9327" version="1.1" xmlns="http://www.w3.org/2000/svg" xmlns:xlink="http://www.w3.org/1999/xlink" xml:space="preserve" xmlns:serif="http://www.serif.com/" style="fill-rule:evenodd;clip-rule:evenodd;stroke-linecap:square;stroke-miterlimit:1.5;"><rect id="Mesa-de-trabajo1" serif:id="Mesa de trabajo1" x="0" y="0" width="13667.6" height="9326.44" style="fill:none;"/><path d="M9053.15,212.451l-4444.34,8901.56" style="fill:none;stroke:#4efc0e;stroke-width:58.33px;"/><path d="M9053.15,212.451l-4455.71,4492.41" style="fill:none;stroke:#00ebbb;stroke-width:58.33px;"/><path d="M6845.74,818.901l-18.717,7688.65" style="fill:none;stroke:#fc3333;stroke-width:58.33px;"/><path d="M4628.88,278.637l-20.032,8824.89" style="fill:none;stroke:#888787;stroke-width:29.17px;"/><path d="M9068.44,278.637l-20.032,8824.89" style="fill:none;stroke:#888787;stroke-width:29.17px;"/><path d="M4615.06,4735.36l-4446,-30.501" style="fill:none;stroke:#ff1ee1;stroke-width:58.33px;stroke-dasharray:58.33,175,0,0;"/><text x="7039.68px" y="6418.61px" style="font-family:'Montserrat-Regular', 'Montserrat';font-size:328.468px;">√<tspan x="7317.56px " y="6418.61px ">3</tspan></text><text x="5673.52px" y="5222.37px" style="font-family:'Montserrat-Regular', 'Montserrat';font-size:328.468px;">√<tspan x="5951.4px " y="5222.37px ">5</tspan></text><text x="2157.45px" y="5434.69px" style="font-family:'Montserrat-Regular', 'Montserrat';font-size:328.468px;">1</text><text x="5673.52px" y="2556.87px" style="font-family:'Montserrat-Regular', 'Montserrat';font-size:328.468px;">√<tspan x="5951.4px " y="2556.87px ">2</tspan></text><g><path d="M4598.05,9099.42c-48.629,-0.048 -97.077,-0.881 -145.332,-2.487c-8.044,-0.267 -14.793,6.046 -15.06,14.091c-0.268,8.044 6.046,14.792 14.09,15.06c48.567,1.616 97.329,2.454 146.273,2.503c8.048,0.008 14.59,-6.52 14.598,-14.569c0.008,-8.049 -6.521,-14.59 -14.569,-14.598Zm290.524,-9.084c-48.192,3.071 -96.593,5.372 -145.19,6.89c-8.045,0.251 -14.373,6.986 -14.121,15.031c0.251,8.045 6.986,14.372 15.031,14.121c48.914,-1.528 97.63,-3.843 146.135,-6.935c8.033,-0.512 14.139,-7.449 13.627,-15.481c-0.512,-8.032 -7.449,-14.138 -15.482,-13.626Zm-581.031,-0.591c-48.502,-3.192 -96.793,-7.166 -144.861,-11.908c-8.01,-0.79 -15.154,5.071 -15.945,13.081c-0.79,8.01 5.072,15.155 13.081,15.945c48.383,4.773 96.99,8.773 145.809,11.986c8.032,0.528 14.981,-5.563 15.51,-13.594c0.529,-8.032 -5.563,-14.981 -13.594,-15.51Zm870.348,-27.344c-47.907,6.213 -96.055,11.66 -144.429,16.33c-8.012,0.773 -13.888,7.905 -13.115,15.917c0.774,8.012 7.906,13.888 15.917,13.115c48.692,-4.701 97.156,-10.184 145.378,-16.437c7.982,-1.035 13.622,-8.356 12.587,-16.338c-1.035,-7.982 -8.356,-13.622 -16.338,-12.587Zm-1159.6,-1.2c-48.17,-6.352 -96.099,-13.478 -143.773,-21.366c-7.941,-1.313 -15.455,4.067 -16.769,12.008c-1.313,7.941 4.067,15.454 12.008,16.768c47.988,7.94 96.233,15.113 144.722,21.506c7.979,1.052 15.312,-4.572 16.364,-12.552c1.052,-7.979 -4.572,-15.312 -12.552,-16.364Zm1446.46,-45.627c-47.414,9.351 -95.1,17.946 -143.043,25.772c-7.944,1.297 -13.341,8.798 -12.044,16.742c1.297,7.944 8.799,13.34 16.742,12.044c48.26,-7.878 96.261,-16.53 143.989,-25.943c7.897,-1.557 13.043,-9.233 11.486,-17.129c-1.558,-7.897 -9.233,-13.044 -17.13,-11.486Zm-1733.22,-1.82c-47.626,-9.501 -94.978,-19.766 -142.044,-30.781c-7.837,-1.834 -15.689,3.04 -17.523,10.877c-1.834,7.837 3.039,15.688 10.876,17.522c47.378,11.089 95.044,21.421 142.985,30.985c7.894,1.574 15.58,-3.555 17.155,-11.449c1.574,-7.893 -3.555,-15.58 -11.449,-17.154Zm2016.36,-63.796c-46.712,12.463 -93.727,24.182 -141.032,35.144c-7.841,1.817 -12.731,9.658 -10.914,17.499c1.817,7.841 9.658,12.732 17.499,10.915c47.618,-11.035 94.945,-22.832 141.966,-35.377c7.777,-2.075 12.406,-10.073 10.331,-17.85c-2.075,-7.777 -10.073,-12.406 -17.85,-10.331Zm-2299.36,-2.437c-46.879,-12.618 -93.454,-25.986 -139.709,-40.09c-7.699,-2.348 -15.856,1.997 -18.203,9.696c-2.348,7.698 1.997,15.855 9.696,18.202c46.562,14.198 93.445,27.655 140.636,40.357c7.772,2.091 15.78,-2.52 17.872,-10.292c2.092,-7.772 -2.519,-15.781 -10.292,-17.873Zm2577.56,-81.725c-45.804,15.526 -91.943,30.323 -138.404,44.379c-7.704,2.331 -12.067,10.478 -9.736,18.181c2.331,7.704 10.477,12.067 18.181,9.736c46.77,-14.149 93.215,-29.045 139.322,-44.674c7.623,-2.583 11.714,-10.87 9.13,-18.493c-2.584,-7.622 -10.87,-11.713 -18.493,-9.129Zm-2855.57,-3.046c-45.927,-15.68 -91.517,-32.093 -136.755,-49.226c-7.527,-2.85 -15.952,0.947 -18.803,8.474c-2.851,7.527 0.946,15.952 8.473,18.803c45.538,17.245 91.43,33.767 137.662,49.551c7.617,2.601 15.912,-1.472 18.513,-9.089c2.6,-7.617 -1.473,-15.913 -9.09,-18.513Zm3127.61,-99.297c-44.694,18.519 -89.757,36.33 -135.173,53.416c-7.533,2.834 -11.349,11.251 -8.514,18.784c2.834,7.534 11.251,11.349 18.784,8.515c45.717,-17.2 91.078,-35.128 136.068,-53.77c7.436,-3.082 10.971,-11.62 7.89,-19.056c-3.081,-7.435 -11.619,-10.971 -19.055,-7.889Zm-3399.42,-3.64c-44.78,-18.67 -89.189,-38.053 -133.215,-58.135c-7.323,-3.34 -15.98,-0.107 -19.32,7.216c-3.341,7.323 -0.107,15.98 7.216,19.321c44.316,20.214 89.019,39.725 134.095,58.518c7.429,3.098 15.975,-0.419 19.072,-7.848c3.098,-7.429 -0.419,-15.975 -7.848,-19.072Zm3664.12,-116.409c-43.393,21.428 -87.186,42.168 -131.365,62.204c-7.33,3.325 -10.582,11.975 -7.257,19.305c3.324,7.33 11.974,10.582 19.304,7.258c44.471,-20.169 88.553,-41.046 132.232,-62.615c7.217,-3.564 10.183,-12.317 6.619,-19.533c-3.564,-7.217 -12.317,-10.183 -19.533,-6.619Zm-3928.57,-4.215c-43.443,-21.569 -86.483,-43.83 -129.106,-66.768c-7.088,-3.815 -15.939,-1.157 -19.753,5.93c-3.814,7.088 -1.157,15.939 5.931,19.753c42.904,23.089 86.228,45.497 129.957,67.209c7.209,3.58 15.968,0.633 19.547,-6.576c3.579,-7.209 0.633,-15.968 -6.576,-19.548Zm4184.81,-132.972c-41.903,24.236 -84.24,47.807 -126.995,70.697c-7.096,3.799 -9.772,12.645 -5.973,19.74c3.799,7.096 12.644,9.773 19.74,5.974c43.036,-23.042 85.651,-46.768 127.831,-71.163c6.967,-4.03 9.352,-12.958 5.323,-19.926c-4.03,-6.967 -12.958,-9.352 -19.926,-5.322Zm-4440.76,-4.764c-41.923,-24.367 -83.412,-49.401 -124.451,-75.087c-6.823,-4.271 -15.829,-2.198 -20.099,4.624c-4.27,6.823 -2.198,15.829 4.624,20.099c41.31,25.855 83.071,51.054 125.269,75.581c6.959,4.044 15.892,1.678 19.937,-5.281c4.045,-6.958 1.679,-15.892 -5.28,-19.936Zm4687.46,-148.918c-40.238,26.932 -80.941,53.224 -122.094,78.86c-6.832,4.256 -8.923,13.257 -4.667,20.089c4.255,6.832 13.257,8.923 20.089,4.667c41.423,-25.805 82.393,-52.269 122.895,-79.377c6.689,-4.477 8.485,-13.542 4.008,-20.231c-4.477,-6.689 -13.542,-8.485 -20.231,-4.008Zm-4933.84,-5.288c-40.232,-27.051 -79.997,-54.743 -119.283,-83.062c-6.529,-4.707 -15.651,-3.227 -20.357,3.302c-4.707,6.529 -3.227,15.651 3.302,20.358c39.542,28.505 79.569,56.378 120.064,83.606c6.68,4.491 15.748,2.714 20.239,-3.965c4.491,-6.679 2.715,-15.748 -3.965,-20.239Zm5169.98,-164.183c-38.406,29.506 -77.308,58.399 -116.691,86.664c-6.539,4.693 -8.038,13.812 -3.345,20.351c4.692,6.539 13.811,8.037 20.35,3.345c39.642,-28.45 78.798,-57.532 117.455,-87.232c6.383,-4.903 7.583,-14.066 2.68,-20.449c-4.904,-6.382 -14.067,-7.583 -20.449,-2.679Zm-5405.78,-5.787c-38.374,-29.611 -76.25,-59.835 -113.615,-90.659c-6.208,-5.122 -15.407,-4.239 -20.529,1.969c-5.122,6.209 -4.24,15.408 1.969,20.53c37.609,31.025 75.733,61.447 114.357,91.251c6.373,4.917 15.538,3.736 20.455,-2.637c4.917,-6.372 3.736,-15.537 -2.637,-20.454Zm5630.38,-178.712c-36.41,31.95 -73.347,63.314 -110.797,94.077c-6.219,5.109 -7.121,14.306 -2.012,20.526c5.109,6.219 14.306,7.121 20.526,2.012c37.694,-30.964 74.873,-62.533 111.521,-94.692c6.05,-5.308 6.651,-14.53 1.343,-20.58c-5.309,-6.05 -14.531,-6.651 -20.581,-1.343Zm-5854.6,-6.256c-36.358,-32.038 -72.188,-64.662 -107.476,-97.857c-5.863,-5.515 -15.1,-5.233 -20.615,0.63c-5.514,5.862 -5.232,15.099 0.63,20.614c35.518,33.412 71.583,66.249 108.178,98.496c6.039,5.322 15.262,4.739 20.583,-1.3c5.322,-6.039 4.739,-15.261 -1.3,-20.583Zm6066.72,-192.462c-34.263,34.257 -69.085,67.957 -104.448,101.085c-5.874,5.503 -6.176,14.739 -0.673,20.613c5.503,5.874 14.739,6.176 20.613,0.673c35.595,-33.345 70.643,-67.265 105.13,-101.745c5.692,-5.691 5.693,-14.932 0.002,-20.624c-5.691,-5.692 -14.932,-5.693 -20.624,-0.002Zm-6278.43,-6.694c-34.192,-34.327 -67.826,-69.211 -100.887,-104.636c-5.492,-5.884 -14.728,-6.203 -20.612,-0.712c-5.884,5.492 -6.203,14.728 -0.711,20.612c33.277,35.657 67.13,70.768 101.545,105.319c5.68,5.702 14.921,5.721 20.624,0.041c5.702,-5.681 5.721,-14.922 0.041,-20.624Zm6477.19,-205.391c-31.969,36.418 -64.525,72.309 -97.653,107.658c-5.504,5.873 -5.205,15.109 0.668,20.613c5.873,5.504 15.11,5.204 20.613,-0.669c33.344,-35.579 66.113,-71.705 98.291,-108.36c5.31,-6.049 4.71,-15.271 -1.339,-20.581c-6.048,-5.309 -15.27,-4.71 -20.58,1.339Zm-6675.51,-7.11c-31.881,-36.47 -63.176,-73.467 -93.869,-110.975c-5.097,-6.229 -14.292,-7.148 -20.521,-2.05c-6.229,5.097 -7.148,14.292 -2.051,20.521c30.894,37.753 62.393,74.992 94.482,111.7c5.298,6.06 14.518,6.679 20.578,1.382c6.06,-5.298 6.679,-14.518 1.381,-20.578Zm6860.06,-217.458c-29.538,38.431 -59.692,76.364 -90.446,113.787c-5.11,6.218 -4.21,15.416 2.008,20.526c6.219,5.11 15.416,4.211 20.526,-2.008c30.955,-37.667 61.306,-75.849 91.037,-114.53c4.905,-6.382 3.706,-15.545 -2.675,-20.45c-6.382,-4.905 -15.545,-3.706 -20.45,2.675Zm-7044.14,-7.491c-29.434,-38.46 -58.253,-77.416 -86.443,-116.852c-4.681,-6.548 -13.797,-8.064 -20.345,-3.384c-6.548,4.681 -8.064,13.797 -3.383,20.345c28.374,39.694 57.382,78.905 87.009,117.617c4.891,6.392 14.052,7.61 20.444,2.718c6.391,-4.891 7.609,-14.052 2.718,-20.444Zm7213.66,-228.618c-26.975,40.283 -54.593,80.101 -82.838,119.44c-4.694,6.538 -3.197,15.657 3.341,20.351c6.538,4.695 15.657,3.198 20.352,-3.34c28.43,-39.596 56.228,-79.676 83.38,-120.223c4.478,-6.688 2.684,-15.753 -4.004,-20.232c-6.687,-4.478 -15.753,-2.684 -20.231,4.004Zm-7382.69,-7.844c-26.856,-40.29 -53.071,-81.043 -78.63,-122.245c-4.242,-6.84 -13.24,-8.948 -20.08,-4.705c-6.839,4.243 -8.948,13.24 -4.705,20.08c25.727,41.473 52.114,82.493 79.146,123.047c4.464,6.697 13.526,8.51 20.223,4.046c6.698,-4.464 8.511,-13.526 4.046,-20.223Zm7536.43,-238.828c-24.288,41.97 -49.243,83.505 -74.852,124.593c-4.257,6.831 -2.168,15.833 4.663,20.09c6.83,4.258 15.832,2.169 20.09,-4.662c25.777,-41.358 50.896,-83.167 75.343,-125.412c4.032,-6.966 1.649,-15.895 -5.318,-19.927c-6.966,-4.031 -15.895,-1.648 -19.926,5.318Zm-7689.64,-8.17c-24.156,-41.949 -47.646,-84.33 -70.456,-127.128c-3.785,-7.103 -12.625,-9.797 -19.728,-6.011c-7.103,3.786 -9.797,12.626 -6.011,19.729c22.96,43.08 46.604,85.739 70.92,127.965c4.016,6.975 12.94,9.376 19.915,5.36c6.975,-4.017 9.377,-12.94 5.36,-19.915Zm7826.89,-248.037c-21.487,43.483 -43.665,86.564 -66.522,129.229c-3.801,7.095 -1.126,15.941 5.969,19.742c7.094,3.801 15.94,1.126 19.741,-5.969c23.007,-42.946 45.332,-86.312 66.961,-130.081c3.565,-7.216 0.602,-15.969 -6.614,-19.535c-7.216,-3.565 -15.969,-0.602 -19.535,6.614Zm-7963.59,-8.467c-21.346,-43.433 -42.002,-87.265 -61.955,-131.483c-3.31,-7.336 -11.954,-10.605 -19.291,-7.294c-7.336,3.31 -10.605,11.954 -7.294,19.291c20.084,44.509 40.877,88.631 62.364,132.351c3.55,7.223 12.297,10.206 19.52,6.656c7.224,-3.55 10.206,-12.297 6.656,-19.521Zm8083.71,-256.208c-18.584,44.815 -37.882,89.261 -57.88,133.324c-3.327,7.33 -0.077,15.981 7.252,19.307c7.329,3.326 15.98,0.076 19.307,-7.253c20.13,-44.354 39.556,-89.094 58.263,-134.206c3.083,-7.434 -0.45,-15.974 -7.885,-19.057c-7.435,-3.083 -15.974,0.45 -19.057,7.885Zm-8203.26,-8.725c-18.434,-44.73 -36.159,-89.827 -53.159,-135.276c-2.819,-7.539 -11.229,-11.37 -18.768,-8.55c-7.538,2.819 -11.37,11.229 -8.55,18.768c17.113,45.75 34.954,91.146 53.511,136.171c3.067,7.442 11.598,10.994 19.04,7.927c7.442,-3.067 10.993,-11.599 7.926,-19.04Zm8305.68,-263.276c-15.592,45.956 -31.918,91.576 -48.963,136.844c-2.836,7.533 0.976,15.951 8.509,18.787c7.532,2.836 15.951,-0.976 18.787,-8.509c17.158,-45.569 33.592,-91.49 49.287,-137.751c2.586,-7.622 -1.502,-15.91 -9.124,-18.496c-7.622,-2.586 -15.91,1.503 -18.496,9.125Zm-8407.5,-8.957c-15.439,-45.833 -30.148,-92.001 -44.115,-138.489c-2.316,-7.708 -10.455,-12.086 -18.163,-9.77c-7.709,2.316 -12.087,10.454 -9.771,18.162c14.06,46.797 28.867,93.271 44.408,139.408c2.569,7.627 10.848,11.734 18.475,9.165c7.628,-2.57 11.735,-10.848 9.166,-18.476Zm8491.74,-269.217c-12.529,46.903 -25.807,93.502 -39.823,139.782c-2.333,7.703 2.027,15.851 9.731,18.184c7.703,2.333 15.851,-2.027 18.184,-9.73c14.108,-46.587 27.475,-93.495 40.086,-140.709c2.078,-7.776 -2.549,-15.775 -10.325,-17.852c-7.777,-2.078 -15.776,2.549 -17.853,10.325Zm-8575.37,-9.143c-12.373,-46.735 -24.003,-93.773 -34.875,-141.099c-1.802,-7.845 -9.633,-12.75 -17.478,-10.948c-7.844,1.802 -12.75,9.633 -10.948,17.478c10.944,47.64 22.651,94.989 35.106,142.034c2.06,7.781 10.05,12.425 17.83,10.365c7.781,-2.06 12.426,-10.049 10.365,-17.83Zm8641.07,-273.986c-9.41,47.645 -19.585,95.017 -30.51,142.103c-1.819,7.841 3.069,15.683 10.91,17.502c7.84,1.82 15.683,-3.069 17.502,-10.909c10.997,-47.399 21.239,-95.084 30.712,-143.044c1.559,-7.896 -3.585,-15.573 -11.482,-17.133c-7.896,-1.559 -15.573,3.585 -17.132,11.481Zm-8706.14,-9.286c-9.26,-47.432 -17.765,-95.133 -25.499,-143.092c-1.282,-7.946 -8.773,-13.357 -16.719,-12.075c-7.947,1.281 -13.357,8.773 -12.076,16.719c7.786,48.275 16.346,96.292 25.668,144.037c1.543,7.9 9.208,13.061 17.108,11.518c7.899,-1.542 13.061,-9.208 11.518,-17.107Zm8753.04,-277.558c-6.26,48.182 -13.295,96.123 -21.091,143.809c-1.299,7.944 4.096,15.447 12.039,16.746c7.943,1.298 15.447,-4.096 16.745,-12.039c7.848,-48.002 14.929,-96.258 21.231,-144.758c1.037,-7.981 -4.601,-15.303 -12.583,-16.34c-7.982,-1.037 -15.304,4.601 -16.341,12.582Zm-8799.33,-9.389c-6.122,-47.919 -11.478,-96.077 -16.057,-144.46c-0.758,-8.013 -7.879,-13.903 -15.892,-13.145c-8.013,0.758 -13.903,7.879 -13.145,15.892c4.609,48.702 10,97.176 16.162,145.409c1.02,7.984 8.33,13.638 16.314,12.618c7.984,-1.02 13.638,-8.33 12.618,-16.314Zm8827.32,-279.922c-3.101,48.511 -6.984,96.811 -11.635,144.888c-0.776,8.011 5.099,15.145 13.111,15.92c8.011,0.775 15.145,-5.1 15.92,-13.111c4.682,-48.392 8.59,-97.008 11.711,-145.836c0.514,-8.032 -5.591,-14.971 -13.623,-15.484c-8.032,-0.514 -14.971,5.591 -15.484,13.623Zm-8854.71,-9.448c-2.981,-48.197 -5.191,-96.602 -6.618,-145.203c-0.236,-8.046 -6.96,-14.386 -15.005,-14.149c-8.045,0.236 -14.385,6.96 -14.149,15.005c1.436,48.917 3.661,97.637 6.661,146.147c0.497,8.034 7.422,14.153 15.455,13.656c8.034,-0.497 14.153,-7.422 13.656,-15.456Zm8863.84,-281.078c0.042,48.631 -0.701,97.082 -2.216,145.34c-0.253,8.045 6.074,14.782 14.118,15.034c8.045,0.253 14.782,-6.074 15.034,-14.118c1.525,-48.571 2.273,-97.336 2.23,-146.282c-0.006,-8.048 -6.547,-14.577 -14.595,-14.57c-8.049,0.007 -14.578,6.547 -14.571,14.596Zm-8872.39,-9.465c0.139,-48.631 1.063,-97.081 2.759,-145.336c0.283,-8.043 -6.018,-14.804 -14.062,-15.086c-8.044,-0.283 -14.804,6.018 -15.087,14.062c-1.707,48.567 -2.636,97.331 -2.776,146.277c-0.023,8.049 6.493,14.602 14.542,14.625c8.048,0.023 14.602,-6.493 14.624,-14.542Zm8862.76,-281.044c3.161,48.186 5.553,96.583 7.162,145.177c0.266,8.045 7.013,14.359 15.057,14.093c8.045,-0.266 14.36,-7.014 14.093,-15.058c-1.619,-48.91 -4.026,-97.622 -7.208,-146.122c-0.527,-8.032 -7.476,-14.124 -15.507,-13.597c-8.032,0.527 -14.124,7.475 -13.597,15.507Zm-8852.54,-9.454c3.284,-48.498 7.349,-96.784 12.183,-144.845c0.805,-8.009 -5.043,-15.164 -13.051,-15.97c-8.008,-0.805 -15.164,5.043 -15.969,13.051c-4.866,48.376 -8.958,96.978 -12.263,145.793c-0.543,8.031 5.535,14.992 13.565,15.536c8.031,0.543 14.992,-5.535 15.535,-13.565Zm8824.06,-279.81c6.303,47.897 11.842,96.034 16.603,144.399c0.788,8.01 7.932,13.873 15.942,13.084c8.01,-0.788 13.873,-7.932 13.084,-15.942c-4.792,-48.682 -10.367,-97.135 -16.712,-145.347c-1.05,-7.979 -8.381,-13.606 -16.361,-12.555c-7.98,1.05 -13.606,8.381 -12.556,16.361Zm-8794.97,-9.395c6.443,-48.155 13.66,-96.068 21.638,-143.725c1.329,-7.938 -4.037,-15.462 -11.975,-16.791c-7.938,-1.328 -15.462,4.037 -16.791,11.976c-8.031,47.971 -15.295,96.199 -21.781,144.672c-1.067,7.978 4.543,15.321 12.521,16.388c7.978,1.068 15.321,-4.542 16.388,-12.52Zm8747.59,-277.373c9.442,47.397 18.128,95.066 26.045,142.993c1.311,7.942 8.823,13.324 16.765,12.012c7.941,-1.312 13.323,-8.824 12.011,-16.765c-7.969,-48.244 -16.712,-96.228 -26.216,-143.938c-1.573,-7.894 -9.258,-13.026 -17.151,-11.454c-7.894,1.573 -13.026,9.258 -11.454,17.152Zm-8699.6,-9.291c9.592,-47.607 19.947,-94.94 31.052,-141.985c1.849,-7.833 -3.009,-15.694 -10.843,-17.543c-7.833,-1.85 -15.694,3.009 -17.543,10.842c-11.179,47.357 -21.603,95.003 -31.258,142.925c-1.59,7.89 3.526,15.587 11.416,17.176c7.89,1.59 15.586,-3.525 17.176,-11.415Zm8633.44,-273.731c12.553,46.689 24.362,93.682 35.414,140.965c1.832,7.838 9.682,12.714 17.52,10.882c7.837,-1.832 12.713,-9.683 10.881,-17.52c-11.125,-47.597 -23.012,-94.901 -35.648,-141.899c-2.09,-7.773 -10.097,-12.387 -17.87,-10.297c-7.772,2.09 -12.386,10.097 -10.297,17.869Zm-8566.67,-9.137c12.707,-46.852 26.163,-93.398 40.356,-139.625c2.362,-7.694 -1.967,-15.859 -9.661,-18.221c-7.695,-2.362 -15.859,1.967 -18.222,9.661c-14.286,46.533 -27.831,93.388 -40.623,140.55c-2.106,7.769 2.49,15.786 10.258,17.893c7.768,2.106 15.785,-2.49 17.892,-10.258Zm8481.98,-268.899c15.614,45.775 30.499,91.886 44.644,138.319c2.345,7.7 10.5,12.047 18.2,9.701c7.699,-2.345 12.046,-10.5 9.701,-18.2c-14.238,-46.741 -29.223,-93.158 -44.94,-139.236c-2.599,-7.618 -10.893,-11.693 -18.511,-9.095c-7.617,2.599 -11.692,10.893 -9.094,18.511Zm-8396.67,-8.945c15.769,-45.897 32.269,-91.457 49.488,-136.664c2.865,-7.521 -0.915,-15.954 -8.437,-18.819c-7.521,-2.865 -15.954,0.916 -18.819,8.438c-17.333,45.506 -33.943,91.367 -49.816,137.569c-2.615,7.612 1.442,15.915 9.054,18.53c7.612,2.615 15.915,-1.442 18.53,-9.054Zm8293.81,-262.895c18.605,44.66 36.501,89.688 53.674,135.072c2.849,7.528 11.273,11.327 18.801,8.478c7.528,-2.848 11.327,-11.272 8.478,-18.8c-17.287,-45.684 -35.301,-91.011 -54.03,-135.967c-3.095,-7.43 -11.64,-10.949 -19.07,-7.853c-7.43,3.095 -10.949,11.64 -7.853,19.07Zm-8190.35,-8.725c18.755,-44.744 38.223,-89.116 58.389,-133.104c3.354,-7.316 0.137,-15.979 -7.179,-19.334c-7.317,-3.354 -15.98,-0.137 -19.334,7.179c-20.3,44.278 -39.896,88.944 -58.775,133.984c-3.112,7.423 0.389,15.975 7.812,19.087c7.423,3.111 15.975,-0.389 19.087,-7.812Zm8069.8,-255.749c21.511,43.351 42.333,87.104 62.454,131.244c3.338,7.323 11.994,10.559 19.318,7.221c7.324,-3.339 10.56,-11.995 7.221,-19.319c-20.253,-44.431 -41.213,-88.473 -62.866,-132.11c-3.577,-7.21 -12.335,-10.159 -19.545,-6.582c-7.21,3.578 -10.159,12.336 -6.582,19.546Zm-7948.67,-8.462c21.653,-43.402 43.996,-86.4 67.015,-128.98c3.828,-7.081 1.187,-15.937 -5.893,-19.764c-7.08,-3.828 -15.936,-1.187 -19.764,5.893c-23.171,42.861 -45.662,86.143 -67.457,129.83c-3.593,7.202 -0.663,15.967 6.539,19.56c7.203,3.593 15.967,0.663 19.56,-6.539Zm7811,-247.521c24.316,41.859 47.967,84.151 70.939,126.863c3.813,7.088 12.663,9.748 19.751,5.936c7.089,-3.813 9.749,-12.663 5.936,-19.752c-23.123,-42.993 -46.93,-85.563 -71.406,-127.698c-4.043,-6.959 -12.976,-9.327 -19.935,-5.285c-6.96,4.043 -9.328,12.976 -5.285,19.936Zm-7672.77,-8.17c24.446,-41.876 49.558,-83.316 75.323,-124.307c4.283,-6.814 2.228,-15.824 -4.587,-20.107c-6.814,-4.283 -15.824,-2.228 -20.107,4.586c-25.934,41.26 -51.211,82.973 -75.817,125.123c-4.058,6.951 -1.709,15.889 5.242,19.947c6.951,4.058 15.889,1.709 19.946,-5.242Zm7518.62,-238.247c27.009,40.188 53.377,80.842 79.091,121.946c4.269,6.824 13.275,8.898 20.098,4.63c6.824,-4.269 8.898,-13.275 4.629,-20.098c-25.883,-41.374 -52.424,-82.295 -79.61,-122.746c-4.489,-6.681 -13.558,-8.459 -20.238,-3.97c-6.681,4.49 -8.459,13.558 -3.97,20.238Zm-7363.95,-7.837c27.126,-40.18 54.892,-79.892 83.285,-119.123c4.719,-6.521 3.257,-15.645 -3.264,-20.364c-6.52,-4.719 -15.645,-3.257 -20.364,3.263c-28.579,39.488 -56.527,79.461 -83.831,119.904c-4.504,6.67 -2.744,15.743 3.927,20.246c6.671,4.504 15.743,2.744 20.247,-3.926Zm7194.03,-227.988c29.579,38.35 58.546,77.197 86.884,116.527c4.705,6.53 13.827,8.012 20.357,3.307c6.53,-4.705 8.012,-13.827 3.307,-20.357c-28.524,-39.588 -57.68,-78.689 -87.453,-117.29c-4.916,-6.374 -14.081,-7.557 -20.454,-2.641c-6.373,4.915 -7.557,14.08 -2.641,20.454Zm-7023.62,-7.481c29.682,-38.317 59.977,-76.136 90.871,-113.441c5.133,-6.199 4.268,-15.4 -1.931,-20.534c-6.199,-5.133 -15.4,-4.268 -20.533,1.931c-31.096,37.549 -61.589,75.615 -91.464,114.182c-4.929,6.363 -3.765,15.531 2.598,20.46c6.363,4.929 15.53,3.765 20.459,-2.598Zm6838.7,-216.775c32.019,36.351 63.453,73.23 94.288,110.623c5.12,6.209 14.319,7.094 20.529,1.973c6.21,-5.121 7.094,-14.32 1.973,-20.529c-31.035,-37.637 -62.675,-74.757 -94.903,-111.346c-5.32,-6.039 -14.543,-6.624 -20.583,-1.304c-6.04,5.32 -6.624,14.543 -1.304,20.583Zm-6653.31,-7.094c32.107,-36.298 64.799,-72.067 98.061,-107.292c5.526,-5.853 5.261,-15.09 -0.591,-20.616c-5.852,-5.526 -15.09,-5.261 -20.615,0.591c-33.48,35.456 -66.385,71.458 -98.701,107.993c-5.333,6.029 -4.768,15.253 1.261,20.585c6.029,5.333 15.253,4.768 20.585,-1.261Zm6454.19,-204.656c34.32,34.198 68.085,68.955 101.279,104.255c5.513,5.863 14.75,6.148 20.614,0.634c5.863,-5.514 6.148,-14.751 0.634,-20.614c-33.411,-35.531 -67.396,-70.514 -101.94,-104.936c-5.702,-5.681 -14.943,-5.665 -20.624,0.037c-5.681,5.701 -5.665,14.943 0.037,20.624Zm-6254.63,-6.682c34.391,-34.127 69.338,-67.695 104.826,-100.689c5.894,-5.481 6.231,-14.716 0.75,-20.611c-5.48,-5.894 -14.716,-6.231 -20.61,-0.75c-35.72,33.21 -70.895,66.997 -105.51,101.347c-5.714,5.669 -5.749,14.91 -0.08,20.623c5.669,5.714 14.911,5.749 20.624,0.08Zm6042.17,-191.679c36.478,31.902 72.431,64.391 107.843,97.453c5.883,5.492 15.119,5.175 20.612,-0.708c5.493,-5.883 5.176,-15.119 -0.707,-20.612c-35.643,-33.277 -71.831,-65.978 -108.548,-98.088c-6.059,-5.299 -15.279,-4.681 -20.578,1.377c-5.298,6.059 -4.681,15.28 1.378,20.578Zm-5829.3,-6.237c36.531,-31.813 73.588,-63.038 111.155,-93.662c6.238,-5.085 7.175,-14.279 2.089,-20.517c-5.085,-6.239 -14.279,-7.175 -20.518,-2.09c-37.812,30.824 -75.111,62.253 -111.881,94.274c-6.069,5.286 -6.706,14.505 -1.42,20.575c5.286,6.07 14.505,6.706 20.575,1.42Zm5604.39,-177.887c38.486,29.466 76.477,59.548 113.958,90.231c6.228,5.099 15.424,4.182 20.522,-2.046c5.099,-6.228 4.182,-15.424 -2.046,-20.522c-37.726,-30.884 -75.965,-61.163 -114.703,-90.822c-6.391,-4.893 -15.552,-3.677 -20.445,2.714c-4.893,6.391 -3.677,15.552 2.714,20.445Zm-5379.09,-5.767c38.516,-29.36 77.526,-58.106 117.015,-86.221c6.557,-4.668 8.09,-13.781 3.422,-20.338c-4.668,-6.557 -13.781,-8.09 -20.338,-3.422c-39.748,28.299 -79.013,57.233 -117.781,86.786c-6.401,4.879 -7.636,14.038 -2.757,20.439c4.88,6.401 14.038,7.636 20.439,2.756Zm5142.66,-163.309c40.332,26.898 80.201,54.439 119.59,82.607c6.547,4.682 15.663,3.168 20.345,-3.379c4.682,-6.547 3.168,-15.663 -3.379,-20.345c-39.647,-28.353 -79.777,-56.074 -120.374,-83.148c-6.696,-4.466 -15.758,-2.655 -20.224,4.041c-4.466,6.697 -2.655,15.759 4.042,20.224Zm-4905.88,-5.269c40.34,-26.78 81.144,-52.917 122.395,-78.399c6.848,-4.229 8.973,-13.223 4.743,-20.071c-4.229,-6.847 -13.223,-8.973 -20.071,-4.743c-41.522,25.649 -82.593,51.958 -123.198,78.913c-6.706,4.452 -8.536,13.51 -4.084,20.216c4.451,6.706 13.509,8.536 20.215,4.084Zm4658.91,-148.003c42.015,24.208 83.598,49.085 124.734,74.616c6.839,4.244 15.837,2.138 20.081,-4.701c4.245,-6.839 2.138,-15.837 -4.7,-20.081c-41.407,-25.699 -83.263,-50.739 -125.554,-75.106c-6.974,-4.018 -15.899,-1.618 -19.917,5.356c-4.018,6.974 -1.618,15.898 5.356,19.916Zm-4411.63,-4.744c41.995,-24.077 84.421,-47.487 127.263,-70.215c7.11,-3.772 9.82,-12.607 6.048,-19.717c-3.772,-7.11 -12.607,-9.821 -19.717,-6.049c-43.124,22.878 -85.83,46.442 -128.101,70.678c-6.983,4.003 -9.401,12.922 -5.398,19.904c4.003,6.983 12.922,9.402 19.905,5.399Zm4155.15,-132.023c43.526,21.405 86.651,43.503 129.361,66.279c7.102,3.787 15.943,1.096 19.73,-6.006c3.787,-7.102 1.096,-15.943 -6.006,-19.73c-42.992,-22.926 -86.401,-45.17 -130.214,-66.716c-7.222,-3.552 -15.97,-0.572 -19.522,6.651c-3.552,7.223 -0.572,15.97 6.651,19.522Zm-3898.39,-4.19c43.472,-21.262 87.344,-41.835 131.599,-61.703c7.343,-3.296 10.628,-11.934 7.331,-19.277c-3.296,-7.342 -11.934,-10.627 -19.276,-7.331c-44.548,19.999 -88.709,40.708 -132.469,62.111c-7.23,3.536 -10.229,12.277 -6.693,19.507c3.537,7.231 12.278,10.23 19.508,6.693Zm3633.5,-115.422c44.85,18.499 89.332,37.712 133.432,57.626c7.336,3.312 15.981,0.046 19.293,-7.29c3.313,-7.335 0.046,-15.98 -7.289,-19.293c-44.392,-20.045 -89.168,-39.385 -134.315,-58.006c-7.441,-3.069 -15.974,0.48 -19.043,7.921c-3.068,7.441 0.481,15.973 7.922,19.042Zm-3368.34,-3.616c44.764,-18.349 89.895,-35.987 135.377,-52.9c7.544,-2.805 11.391,-11.207 8.586,-18.751c-2.805,-7.545 -11.208,-11.392 -18.752,-8.586c-45.783,17.025 -91.213,34.779 -136.273,53.25c-7.448,3.052 -11.015,11.577 -7.963,19.025c3.053,7.447 11.578,11.015 19.025,7.962Zm3096.13,-98.284c45.988,15.505 91.64,31.744 136.943,48.703c7.538,2.822 15.949,-1.007 18.77,-8.545c2.822,-7.538 -1.007,-15.949 -8.545,-18.771c-45.602,-17.071 -91.557,-33.418 -137.85,-49.026c-7.627,-2.571 -15.907,1.533 -18.478,9.16c-2.572,7.627 1.533,15.907 9.16,18.479Zm-2823.7,-3.018c45.862,-15.35 92.058,-29.972 138.573,-43.85c7.713,-2.301 12.107,-10.431 9.805,-18.144c-2.301,-7.713 -10.431,-12.106 -18.144,-9.805c-46.823,13.97 -93.325,28.688 -139.491,44.14c-7.633,2.555 -11.755,10.826 -9.201,18.458c2.555,7.633 10.826,11.756 18.458,9.201Zm2545.38,-80.689c46.926,12.438 93.548,25.627 139.854,39.554c7.707,2.318 15.847,-2.058 18.165,-9.765c2.318,-7.708 -2.057,-15.848 -9.765,-18.166c-46.612,-14.019 -93.544,-27.295 -140.781,-39.816c-7.78,-2.062 -15.771,2.58 -17.833,10.36c-2.062,7.78 2.58,15.771 10.36,17.833Zm-2266.86,-2.409c46.758,-12.284 93.818,-23.824 141.166,-34.605c7.848,-1.787 12.769,-9.61 10.982,-17.458c-1.787,-7.847 -9.61,-12.768 -17.458,-10.981c-47.661,10.853 -95.033,22.469 -142.101,34.834c-7.785,2.046 -12.445,10.026 -10.4,17.811c2.045,7.784 10.026,12.444 17.811,10.399Zm1983.61,-62.745c47.663,9.32 95.054,19.404 142.161,30.239c7.844,1.804 15.677,-3.1 17.481,-10.943c1.804,-7.844 -3.099,-15.677 -10.943,-17.482c-47.419,-10.907 -95.124,-21.057 -143.102,-30.438c-7.899,-1.545 -15.566,3.614 -17.111,11.514c-1.544,7.899 3.615,15.566 11.514,17.11Zm-1700.21,-1.789c47.449,-9.17 95.167,-17.583 143.141,-25.226c7.949,-1.267 13.374,-8.748 12.107,-16.697c-1.266,-7.948 -8.747,-13.373 -16.696,-12.107c-48.291,7.694 -96.324,16.163 -144.086,25.394c-7.903,1.527 -13.078,9.183 -11.551,17.085c1.527,7.903 9.183,13.079 17.085,11.551Zm1413.28,-44.566c48.192,6.169 96.144,13.112 143.843,20.817c7.946,1.284 15.439,-4.125 16.723,-12.071c1.283,-7.945 -4.126,-15.438 -12.071,-16.722c-48.014,-7.756 -96.282,-14.745 -144.792,-20.955c-7.984,-1.022 -15.295,4.63 -16.317,12.614c-1.022,7.984 4.63,15.295 12.614,16.317Zm-1126.25,-1.169c47.93,-6.03 96.097,-11.295 144.49,-15.782c8.015,-0.743 13.918,-7.853 13.175,-15.868c-0.743,-8.014 -7.853,-13.917 -15.867,-13.174c-48.711,4.516 -97.195,9.815 -145.44,15.886c-7.985,1.004 -13.653,8.304 -12.648,16.289c1.005,7.986 8.304,13.654 16.29,12.649Zm836.891,-26.282c48.514,3.009 96.819,6.801 144.901,11.361c8.013,0.76 15.136,-5.128 15.896,-13.141c0.76,-8.013 -5.129,-15.135 -13.142,-15.895c-48.397,-4.59 -97.017,-8.407 -145.849,-11.436c-8.033,-0.498 -14.96,5.619 -15.458,13.652c-0.498,8.034 5.619,14.96 13.652,15.459Zm-547.47,-0.558c48.202,-2.89 96.611,-5.009 145.215,-6.345c8.046,-0.222 14.399,-6.933 14.178,-14.979c-0.222,-8.046 -6.933,-14.398 -14.979,-14.177c-48.92,1.345 -97.644,3.478 -146.16,6.386c-8.034,0.482 -14.166,7.396 -13.684,15.43c0.481,8.035 7.395,14.166 15.43,13.685Zm256.926,-8.031c48.633,-0.133 97.087,0.52 145.349,1.945c8.045,0.237 14.769,-6.101 15.007,-14.147c0.238,-8.045 -6.101,-14.77 -14.146,-15.007c-48.575,-1.434 -97.341,-2.091 -146.289,-1.958c-8.049,0.022 -14.566,6.574 -14.544,14.623c0.022,8.049 6.574,14.566 14.623,14.544Z"/><path d="M9060.54,9099.42c-48.63,-0.048 -97.078,-0.881 -145.332,-2.487l-0.97,29.151c48.567,1.616 97.329,2.454 146.273,2.503l0.029,-29.167Zm290.524,-9.084c-48.192,3.071 -96.593,5.372 -145.191,6.89l0.911,29.152c48.914,-1.528 97.63,-3.843 146.135,-6.935l-1.855,-29.107Zm-581.031,-0.591c-48.502,-3.192 -96.793,-7.166 -144.861,-11.908l-2.864,29.026c48.382,4.773 96.99,8.773 145.809,11.986l1.916,-29.104Zm870.348,-27.344c-47.908,6.213 -96.055,11.66 -144.429,16.33l2.802,29.032c48.692,-4.701 97.156,-10.184 145.378,-16.437l-3.751,-28.925Zm-1159.6,-1.2c-48.17,-6.352 -96.099,-13.478 -143.774,-21.366l-4.76,28.776c47.988,7.94 96.233,15.113 144.721,21.506l3.813,-28.916Zm1446.46,-45.627c-47.414,9.351 -95.1,17.946 -143.044,25.772l4.699,28.786c48.26,-7.878 96.261,-16.53 143.989,-25.943l-5.644,-28.615Zm-1733.22,-1.82c-47.626,-9.501 -94.979,-19.766 -142.045,-30.781l-6.646,28.399c47.378,11.089 95.044,21.421 142.985,30.985l5.706,-28.603Zm2016.36,-63.796c-46.712,12.463 -93.727,24.182 -141.032,35.144l6.585,28.414c47.618,-11.035 94.945,-22.832 141.966,-35.377l-7.519,-28.181Zm-2299.36,-2.437c-46.88,-12.618 -93.454,-25.986 -139.709,-40.09l-8.507,27.898c46.562,14.198 93.445,27.655 140.636,40.357l7.58,-28.165Zm2577.56,-81.725c-45.804,15.526 -91.943,30.323 -138.404,44.379l8.445,27.917c46.769,-14.149 93.215,-29.045 139.322,-44.674l-9.363,-27.622Zm-2855.57,-3.046c-45.927,-15.68 -91.517,-32.093 -136.755,-49.226l-10.33,27.277c45.538,17.245 91.43,33.767 137.661,49.551l9.424,-27.602Zm3127.61,-99.297c-44.694,18.519 -89.757,36.33 -135.173,53.416l10.27,27.299c45.717,-17.2 91.078,-35.128 136.068,-53.77l-11.165,-26.945Zm-3399.42,-3.64c-44.78,-18.67 -89.19,-38.053 -133.215,-58.135l-12.105,26.537c44.317,20.214 89.02,39.725 134.096,58.518l11.224,-26.92Zm3664.12,-116.409c-43.392,21.428 -87.185,42.168 -131.364,62.204l12.047,26.563c44.471,-20.169 88.553,-41.046 132.232,-62.615l-12.915,-26.152Zm-3928.57,-4.215c-43.442,-21.569 -86.482,-43.83 -129.106,-66.768l-13.821,25.683c42.904,23.089 86.228,45.497 129.957,67.209l12.97,-26.124Zm4184.81,-132.972c-41.904,24.236 -84.24,47.807 -126.995,70.697l13.766,25.714c43.037,-23.042 85.652,-46.768 127.832,-71.163l-14.603,-25.248Zm-4440.76,-4.764c-41.923,-24.367 -83.412,-49.401 -124.451,-75.087l-15.475,24.723c41.31,25.855 83.071,51.054 125.269,75.581l14.657,-25.217Zm4687.46,-148.918c-40.238,26.932 -80.941,53.224 -122.094,78.86l15.421,24.756c41.424,-25.805 82.394,-52.269 122.896,-79.377l-16.223,-24.239Zm-4933.84,-5.288c-40.232,-27.051 -79.998,-54.743 -119.283,-83.062l-17.055,23.66c39.542,28.505 79.569,56.378 120.064,83.606l16.274,-24.204Zm5169.98,-164.183c-38.406,29.506 -77.308,58.399 -116.692,86.664l17.006,23.696c39.641,-28.45 78.798,-57.532 117.455,-87.232l-17.769,-23.128Zm-5405.78,-5.787c-38.374,-29.611 -76.25,-59.835 -113.615,-90.659l-18.56,22.499c37.608,31.025 75.733,61.447 114.357,91.251l17.818,-23.091Zm5630.38,-178.712c-36.41,31.95 -73.347,63.314 -110.797,94.077l18.514,22.538c37.694,-30.964 74.873,-62.533 111.521,-94.692l-19.238,-21.923Zm-5854.6,-6.256c-36.358,-32.038 -72.189,-64.662 -107.476,-97.857l-19.985,21.244c35.518,33.412 71.583,66.249 108.178,98.496l19.283,-21.883Zm6066.72,-192.462c-34.264,34.257 -69.085,67.957 -104.448,101.085l19.94,21.286c35.594,-33.345 70.643,-67.265 105.13,-101.745l-20.622,-20.626Zm-6278.44,-6.694c-34.191,-34.327 -67.825,-69.211 -100.887,-104.636l-21.323,19.9c33.278,35.657 67.131,70.768 101.546,105.319l20.664,-20.583Zm6477.19,-205.391c-31.97,36.418 -64.526,72.309 -97.654,107.658l21.282,19.944c33.344,-35.579 66.113,-71.705 98.291,-108.36l-21.919,-19.242Zm-6675.51,-7.11c-31.881,-36.47 -63.176,-73.467 -93.869,-110.975l-22.572,18.471c30.893,37.753 62.393,74.992 94.482,111.7l21.959,-19.196Zm6860.06,-217.458c-29.539,38.431 -59.692,76.364 -90.446,113.787l22.534,18.518c30.955,-37.667 61.305,-75.849 91.037,-114.53l-23.125,-17.775Zm-7044.14,-7.491c-29.434,-38.46 -58.253,-77.416 -86.443,-116.852l-23.728,16.961c28.374,39.694 57.382,78.905 87.009,117.617l23.162,-17.726Zm7213.66,-228.618c-26.975,40.283 -54.593,80.101 -82.838,119.44l23.693,17.011c28.43,-39.596 56.228,-79.676 83.38,-120.223l-24.235,-16.228Zm-7382.69,-7.844c-26.856,-40.29 -53.071,-81.043 -78.63,-122.245l-24.785,15.375c25.727,41.473 52.114,82.493 79.146,123.047l24.269,-16.177Zm7536.43,-238.828c-24.288,41.97 -49.243,83.505 -74.852,124.593l24.752,15.428c25.778,-41.358 50.897,-83.167 75.344,-125.412l-25.244,-14.609Zm-7689.64,-8.17c-24.156,-41.949 -47.646,-84.33 -70.456,-127.128l-25.739,13.718c22.959,43.08 46.604,85.739 70.92,127.965l25.275,-14.555Zm7826.89,-248.037c-21.487,43.483 -43.665,86.564 -66.522,129.229l25.71,13.773c23.007,-42.946 45.332,-86.312 66.961,-130.081l-26.149,-12.921Zm-7963.59,-8.467c-21.346,-43.433 -42.002,-87.265 -61.955,-131.483l-26.586,11.997c20.085,44.509 40.878,88.631 62.365,132.351l26.176,-12.865Zm8083.71,-256.208c-18.584,44.815 -37.883,89.261 -57.881,133.324l26.56,12.054c20.13,-44.354 39.556,-89.094 58.263,-134.206l-26.942,-11.172Zm-8203.26,-8.725c-18.434,-44.73 -36.159,-89.827 -53.159,-135.276l-27.318,10.218c17.113,45.75 34.954,91.146 53.511,136.171l26.966,-11.113Zm8305.68,-263.276c-15.592,45.956 -31.918,91.576 -48.963,136.844l27.296,10.278c17.158,-45.569 33.592,-91.49 49.287,-137.751l-27.62,-9.371Zm-8407.5,-8.957c-15.438,-45.833 -30.148,-92.001 -44.115,-138.489l-27.933,8.392c14.06,46.797 28.867,93.271 44.408,139.408l27.64,-9.311Zm8491.74,-269.217c-12.529,46.903 -25.808,93.502 -39.823,139.782l27.915,8.454c14.108,-46.587 27.475,-93.495 40.086,-140.709l-28.178,-7.527Zm-8575.37,-9.143c-12.373,-46.735 -24.003,-93.773 -34.875,-141.099l-28.426,6.53c10.944,47.64 22.65,94.989 35.106,142.034l28.195,-7.465Zm8641.07,-273.986c-9.411,47.645 -19.585,95.017 -30.51,142.103l28.412,6.593c10.997,-47.399 21.239,-95.084 30.712,-143.044l-28.614,-5.652Zm-8706.14,-9.286c-9.261,-47.432 -17.765,-95.133 -25.499,-143.092l-28.795,4.644c7.786,48.275 16.346,96.292 25.668,144.037l28.626,-5.589Zm8753.04,-277.558c-6.26,48.182 -13.295,96.123 -21.091,143.809l28.784,4.707c7.848,-48.002 14.929,-96.258 21.231,-144.758l-28.924,-3.758Zm-8799.33,-9.389c-6.122,-47.919 -11.478,-96.077 -16.057,-144.46l-29.037,2.747c4.609,48.702 10,97.176 16.162,145.409l28.932,-3.696Zm8827.32,-279.922c-3.101,48.511 -6.984,96.811 -11.636,144.888l29.032,2.809c4.682,-48.392 8.59,-97.008 11.711,-145.836l-29.107,-1.861Zm-8854.71,-9.448c-2.981,-48.197 -5.191,-96.602 -6.618,-145.203l-29.154,0.856c1.436,48.917 3.661,97.637 6.661,146.147l29.111,-1.8Zm8863.84,-281.078c0.042,48.631 -0.701,97.082 -2.216,145.34l29.152,0.916c1.525,-48.571 2.273,-97.336 2.23,-146.282l-29.166,0.026Zm-8872.39,-9.465c0.139,-48.631 1.063,-97.081 2.759,-145.336l-29.149,-1.024c-1.707,48.567 -2.636,97.331 -2.776,146.277l29.166,0.083Zm8862.76,-281.044c3.162,48.186 5.554,96.583 7.162,145.177l29.151,-0.965c-1.619,-48.91 -4.026,-97.622 -7.208,-146.122l-29.105,1.91Zm-8852.54,-9.454c3.284,-48.498 7.349,-96.784 12.183,-144.845l-29.021,-2.919c-4.865,48.376 -8.957,96.978 -12.262,145.793l29.1,1.971Zm8824.06,-279.81c6.303,47.897 11.842,96.034 16.603,144.399l29.026,-2.858c-4.792,-48.682 -10.367,-97.135 -16.712,-145.347l-28.917,3.806Zm-8794.97,-9.395c6.443,-48.155 13.66,-96.068 21.638,-143.725l-28.766,-4.815c-8.031,47.971 -15.296,96.199 -21.781,144.672l28.909,3.868Zm8747.59,-277.373c9.442,47.397 18.128,95.066 26.044,142.993l28.777,-4.753c-7.969,-48.244 -16.712,-96.228 -26.216,-143.938l-28.605,5.698Zm-8699.6,-9.291c9.592,-47.607 19.947,-94.94 31.052,-141.985l-28.387,-6.701c-11.178,47.357 -21.602,95.003 -31.257,142.925l28.592,5.761Zm8633.44,-273.731c12.553,46.689 24.362,93.682 35.414,140.965l28.401,-6.638c-11.125,-47.597 -23.013,-94.901 -35.648,-141.899l-28.167,7.572Zm-8566.67,-9.137c12.707,-46.852 26.163,-93.398 40.356,-139.625l-27.883,-8.56c-14.286,46.533 -27.832,93.388 -40.623,140.55l28.15,7.635Zm8481.98,-268.899c15.613,45.775 30.499,91.886 44.644,138.319l27.901,-8.499c-14.239,-46.741 -29.223,-93.158 -44.94,-139.236l-27.605,9.416Zm-8396.67,-8.945c15.768,-45.897 32.269,-91.457 49.488,-136.664l-27.256,-10.381c-17.333,45.506 -33.943,91.367 -49.816,137.569l27.584,9.476Zm8293.81,-262.895c18.606,44.66 36.502,89.688 53.675,135.072l27.279,-10.322c-17.287,-45.684 -35.301,-91.011 -54.03,-135.967l-26.924,11.217Zm-8190.35,-8.725c18.755,-44.744 38.222,-89.116 58.389,-133.104l-26.514,-12.155c-20.299,44.278 -39.895,88.944 -58.774,133.984l26.899,11.275Zm8069.8,-255.749c21.511,43.351 42.333,87.104 62.454,131.244l26.539,-12.098c-20.253,-44.431 -41.213,-88.473 -62.866,-132.11l-26.127,12.964Zm-7948.67,-8.462c21.653,-43.402 43.996,-86.4 67.015,-128.98l-25.657,-13.871c-23.171,42.861 -45.662,86.143 -67.457,129.83l26.099,13.021Zm7811,-247.521c24.316,41.859 47.967,84.151 70.939,126.863l25.687,-13.816c-23.123,-42.993 -46.93,-85.563 -71.406,-127.698l-25.22,14.651Zm-7672.77,-8.17c24.446,-41.876 49.558,-83.316 75.323,-124.307l-24.694,-15.521c-25.934,41.26 -51.211,82.973 -75.817,125.123l25.188,14.705Zm7518.62,-238.247c27.008,40.188 53.377,80.842 79.091,121.946l24.727,-15.468c-25.883,-41.374 -52.424,-82.295 -79.61,-122.746l-24.208,16.268Zm-7363.95,-7.837c27.126,-40.18 54.893,-79.892 83.286,-119.123l-23.628,-17.101c-28.579,39.488 -56.527,79.461 -83.831,119.904l24.173,16.32Zm7194.03,-227.988c29.579,38.35 58.545,77.197 86.884,116.527l23.664,-17.05c-28.524,-39.588 -57.68,-78.689 -87.453,-117.29l-23.095,17.813Zm-7023.62,-7.481c29.682,-38.317 59.977,-76.136 90.871,-113.441l-22.464,-18.603c-31.096,37.549 -61.589,75.615 -91.465,114.182l23.058,17.862Zm6838.7,-216.775c32.019,36.351 63.453,73.23 94.288,110.623l22.502,-18.556c-31.036,-37.637 -62.675,-74.757 -94.904,-111.346l-21.886,19.279Zm-6653.31,-7.094c32.107,-36.298 64.799,-72.067 98.061,-107.292l-21.207,-20.025c-33.479,35.456 -66.384,71.458 -98.7,107.993l21.846,19.324Zm6454.19,-204.656c34.321,34.198 68.086,68.955 101.28,104.255l21.248,-19.98c-33.411,-35.531 -67.396,-70.514 -101.94,-104.936l-20.588,20.661Zm-6254.63,-6.682c34.391,-34.127 69.338,-67.695 104.826,-100.689l-19.86,-21.361c-35.72,33.21 -70.895,66.997 -105.51,101.347l20.544,20.703Zm6042.17,-191.679c36.479,31.902 72.432,64.391 107.844,97.453l19.904,-21.32c-35.643,-33.277 -71.83,-65.978 -108.547,-98.088l-19.201,21.955Zm-5829.3,-6.237c36.531,-31.813 73.588,-63.038 111.155,-93.662l-18.429,-22.607c-37.812,30.824 -75.111,62.253 -111.881,94.274l19.155,21.995Zm5604.39,-177.887c38.486,29.466 76.477,59.548 113.958,90.231l18.475,-22.568c-37.725,-30.884 -75.964,-61.163 -114.702,-90.822l-17.731,23.159Zm-5379.09,-5.767c38.516,-29.36 77.526,-58.106 117.015,-86.221l-16.916,-23.76c-39.748,28.299 -79.014,57.233 -117.781,86.786l17.682,23.195Zm5142.66,-163.309c40.332,26.898 80.2,54.439 119.59,82.607l16.966,-23.724c-39.648,-28.353 -79.777,-56.074 -120.374,-83.148l-16.182,24.265Zm-4905.88,-5.269c40.34,-26.78 81.143,-52.917 122.395,-78.399l-15.328,-24.814c-41.522,25.649 -82.593,51.958 -123.198,78.913l16.131,24.3Zm4658.91,-148.003c42.016,24.208 83.599,49.085 124.735,74.616l15.381,-24.782c-41.407,-25.699 -83.263,-50.739 -125.555,-75.106l-14.561,25.272Zm-4411.63,-4.744c41.995,-24.077 84.421,-47.487 127.263,-70.215l-13.669,-25.766c-43.124,22.878 -85.83,46.442 -128.101,70.678l14.507,25.303Zm4155.15,-132.023c43.525,21.405 86.651,43.503 129.361,66.279l13.724,-25.736c-42.992,-22.926 -86.401,-45.17 -130.214,-66.716l-12.871,26.173Zm-3898.39,-4.19c43.472,-21.262 87.343,-41.835 131.599,-61.703l-11.946,-26.608c-44.547,19.999 -88.708,40.708 -132.468,62.111l12.815,26.2Zm3633.49,-115.422c44.851,18.499 89.333,37.712 133.433,57.626l12.004,-26.583c-44.392,-20.045 -89.168,-39.385 -134.315,-58.006l-11.122,26.963Zm-3368.34,-3.616c44.764,-18.349 89.894,-35.987 135.377,-52.9l-10.166,-27.337c-45.784,17.025 -91.213,34.779 -136.273,53.25l11.062,26.987Zm3096.13,-98.284c45.989,15.505 91.641,31.744 136.944,48.703l10.225,-27.316c-45.603,-17.071 -91.557,-33.418 -137.85,-49.026l-9.319,27.639Zm-2823.7,-3.018c45.862,-15.35 92.058,-29.972 138.573,-43.85l-8.339,-27.949c-46.824,13.97 -93.325,28.688 -139.491,44.14l9.257,27.659Zm2545.38,-80.689c46.926,12.438 93.548,25.627 139.853,39.554l8.401,-27.931c-46.613,-14.019 -93.544,-27.295 -140.781,-39.816l-7.473,28.193Zm-2266.86,-2.409c46.759,-12.284 93.819,-23.824 141.167,-34.605l-6.476,-28.439c-47.661,10.853 -95.033,22.469 -142.102,34.834l7.411,28.21Zm1983.61,-62.745c47.663,9.32 95.054,19.404 142.161,30.239l6.538,-28.425c-47.419,-10.907 -95.124,-21.057 -143.102,-30.438l-5.597,28.624Zm-1700.21,-1.789c47.449,-9.17 95.167,-17.583 143.141,-25.226l-4.589,-28.804c-48.291,7.694 -96.324,16.163 -144.086,25.394l5.534,28.636Zm1413.28,-44.566c48.192,6.169 96.144,13.112 143.843,20.817l4.651,-28.793c-48.013,-7.756 -96.282,-14.745 -144.791,-20.955l-3.703,28.931Zm-1126.25,-1.169c47.93,-6.03 96.098,-11.295 144.491,-15.782l-2.692,-29.042c-48.711,4.516 -97.195,9.815 -145.44,15.886l3.641,28.938Zm836.892,-26.282c48.514,3.009 96.818,6.801 144.901,11.361l2.754,-29.036c-48.397,-4.59 -97.018,-8.407 -145.849,-11.436l-1.806,29.111Zm-547.47,-0.558c48.202,-2.89 96.611,-5.009 145.215,-6.345l-0.801,-29.156c-48.921,1.345 -97.644,3.478 -146.16,6.386l1.746,29.115Zm256.926,-8.031c48.633,-0.133 97.087,0.52 145.348,1.945l0.861,-29.154c-48.574,-1.434 -97.341,-2.091 -146.288,-1.958l0.079,29.167Z"/></g></svg>