<?xml version="1.0" encoding="UTF-8" standalone="no"?><!DOCTYPE svg PUBLIC "-//W3C//DTD SVG 1.1//EN" "http://www.w3.org/Graphics/SVG/1.1/DTD/svg11.dtd"><svg width="100%" height="100%" viewBox="0 0 13668 9327" version="1.1" xmlns="http://www.w3.org/2000/svg" xmlns:xlink="http://www.w3.org/1999/xlink" xml:space="preserve" xmlns:serif="http://www.serif.com/" style="fill-rule:evenodd;clip-rule:evenodd;stroke-linecap:round;stroke-linejoin:round;stroke-miterlimit:1.5;"><rect id="Mesa-de-trabajo1" serif:id="Mesa de trabajo1" x="0" y="0" width="13667.6" height="9326.44" style="fill:none;"/><path d="M4662.3,228.241c2467.54,42.956 4436,2081.16 4393.05,4548.71c-42.956,2467.54 -2081.16,4436 -4548.71,4393.05c-2467.54,-42.955 -4436,-2081.16 -4393.05,-4548.71c42.955,-2467.54 2081.16,-4436 4548.71,-4393.05Z" style="fill:none;stroke:#555;stroke-width:31.25px;stroke-dasharray:187.5,125,0,0;"/><path d="M9137.19,226.034c-1234.38,-18.128 -2360.01,466.529 -3181.58,1264.31c-821.567,797.784 -1339.07,1908.7 -1357.2,3143.08c-18.128,1234.38 466.529,2360.01 1264.31,3181.58c797.784,821.567 1908.7,1339.07 3143.08,1357.2c1234.38,18.128 2360.01,-466.529 3181.58,-1264.31c821.567,-797.784 1339.07,-1908.7 1357.2,-3143.08c18.128,-1234.38 -466.529,-2360.01 -1264.31,-3181.58c-797.784,-821.567 -1908.7,-1339.07 -3143.08,-1357.2Zm-0.078,5.29c1232.92,18.107 2342.52,534.999 3139.36,1355.59c796.842,820.595 1280.93,1944.89 1262.82,3177.82c-18.107,1232.92 -534.999,2342.52 -1355.59,3139.36c-820.595,796.842 -1944.89,1280.93 -3177.82,1262.82c-1232.92,-18.107 -2342.52,-534.999 -3139.36,-1355.59c-796.842,-820.595 -1280.93,-1944.89 -1262.82,-3177.82c18.107,-1232.92 534.999,-2342.52 1355.59,-3139.36c820.595,-796.842 1944.89,-1280.93 3177.82,-1262.82Z"/><path d="M4706.61,4745.12c0,56.443 -45.787,102.268 -102.184,102.268c-56.397,0 -102.184,-45.825 -102.184,-102.268c0,-56.444 45.787,-102.268 102.184,-102.268c56.397,0 102.184,45.824 102.184,102.268Z"/><path d="M4638.22,4838.34c-9.298,3.383 -19.245,5.41 -29.6,5.843c-1.723,0.072 -3.064,1.53 -2.992,3.253c0.073,1.723 1.53,3.064 3.253,2.992c11.011,-0.461 21.588,-2.617 31.476,-6.214c1.621,-0.59 2.458,-2.384 1.868,-4.005c-0.589,-1.621 -2.384,-2.458 -4.005,-1.869Zm-59.596,2.531c-9.89,-2.667 -19.17,-6.829 -27.581,-12.229c-1.452,-0.932 -3.387,-0.51 -4.318,0.941c-0.932,1.452 -0.51,3.387 0.941,4.318c8.945,5.743 18.814,10.169 29.331,13.004c1.665,0.449 3.381,-0.538 3.83,-2.204c0.449,-1.665 -0.538,-3.381 -2.203,-3.83Zm106.918,-38.862c-5.814,8.286 -12.862,15.642 -20.876,21.801c-1.368,1.051 -1.625,3.014 -0.574,4.382c1.051,1.367 3.014,1.624 4.382,0.573c8.516,-6.544 16.006,-14.361 22.184,-23.166c0.991,-1.412 0.649,-3.363 -0.763,-4.353c-1.412,-0.991 -3.362,-0.649 -4.353,0.763Zm-157.136,6.666c-6.438,-7.704 -11.731,-16.4 -15.613,-25.825c-0.657,-1.594 -2.485,-2.356 -4.08,-1.699c-1.595,0.657 -2.356,2.485 -1.699,4.08c4.127,10.018 9.752,19.262 16.597,27.452c1.106,1.324 3.078,1.5 4.402,0.394c1.323,-1.106 1.499,-3.078 0.393,-4.402Zm175.072,-63.547c0,-5.7 -0.481,-11.288 -1.405,-16.726c-0.29,-1.7 0.856,-3.316 2.557,-3.605c1.7,-0.289 3.315,0.857 3.604,2.557c0.921,5.418 1.429,10.975 1.488,16.639l0.006,1.135c0,11.047 -1.702,21.699 -4.858,31.709c-0.519,1.645 -2.275,2.559 -3.92,2.041c-1.645,-0.519 -2.559,-2.276 -2.041,-3.921c2.969,-9.416 4.569,-19.437 4.569,-29.829Zm-197.768,8.394c-0.232,-2.768 -0.35,-5.567 -0.35,-8.394c0,-7.461 0.824,-14.73 2.388,-21.722c0.377,-1.683 -0.684,-3.355 -2.367,-3.732c-1.684,-0.376 -3.356,0.685 -3.732,2.368c-1.662,7.431 -2.539,15.156 -2.539,23.086c0,3.003 0.125,5.977 0.372,8.917c0.144,1.718 1.657,2.997 3.375,2.852c1.719,-0.144 2.997,-1.656 2.853,-3.375Zm169.069,-78.155c7.082,7.155 13.085,15.383 17.741,24.417c0.79,1.533 2.676,2.137 4.209,1.347c1.533,-0.791 2.136,-2.677 1.346,-4.21c-4.948,-9.602 -11.327,-18.346 -18.855,-25.951c-1.213,-1.226 -3.193,-1.236 -4.419,-0.022c-1.226,1.213 -1.236,3.193 -0.022,4.419Zm-156.012,19.952c5.106,-8.769 11.517,-16.684 18.967,-23.479c1.274,-1.162 1.365,-3.141 0.203,-4.415c-1.163,-1.274 -3.141,-1.365 -4.415,-0.203c-7.917,7.221 -14.73,15.633 -20.156,24.952c-0.868,1.491 -0.363,3.406 1.128,4.273c1.49,0.868 3.405,0.363 4.273,-1.128Zm103.255,-47.771c10.123,1.82 19.714,5.181 28.521,9.832c1.525,0.806 3.417,0.221 4.222,-1.304c0.806,-1.525 0.222,-3.417 -1.304,-4.222c-9.367,-4.947 -19.567,-8.522 -30.333,-10.458c-1.697,-0.305 -3.323,0.826 -3.628,2.523c-0.306,1.698 0.825,3.324 2.522,3.629Zm-59.165,7.571c9.014,-4.18 18.761,-7.044 28.992,-8.342c1.711,-0.218 2.923,-1.783 2.706,-3.494c-0.217,-1.711 -1.782,-2.924 -3.493,-2.707c-10.882,1.382 -21.247,4.427 -30.834,8.874c-1.565,0.725 -2.246,2.585 -1.52,4.149c0.725,1.565 2.585,2.246 4.149,1.52Z" style="fill:#fff;"/><path d="M9148.93,4745.12c0,56.443 -45.787,102.268 -102.184,102.268c-56.397,0 -102.185,-45.825 -102.185,-102.268c0,-56.444 45.788,-102.268 102.185,-102.268c56.397,0 102.184,45.824 102.184,102.268Z"/><path d="M9080.55,4838.34c-9.299,3.383 -19.245,5.41 -29.6,5.843c-1.723,0.072 -3.064,1.53 -2.992,3.253c0.072,1.723 1.53,3.064 3.253,2.992c11.011,-0.461 21.588,-2.617 31.475,-6.214c1.621,-0.59 2.459,-2.384 1.869,-4.005c-0.59,-1.621 -2.384,-2.458 -4.005,-1.869Zm-59.597,2.531c-9.89,-2.667 -19.169,-6.829 -27.581,-12.229c-1.451,-0.932 -3.386,-0.51 -4.318,0.941c-0.931,1.452 -0.51,3.387 0.942,4.318c8.945,5.743 18.813,10.169 29.33,13.004c1.666,0.449 3.382,-0.538 3.831,-2.204c0.449,-1.665 -0.539,-3.381 -2.204,-3.83Zm106.919,-38.862c-5.814,8.286 -12.863,15.642 -20.877,21.801c-1.367,1.051 -1.624,3.014 -0.574,4.382c1.051,1.367 3.015,1.624 4.382,0.573c8.517,-6.544 16.007,-14.361 22.185,-23.166c0.99,-1.412 0.648,-3.363 -0.763,-4.353c-1.412,-0.991 -3.363,-0.649 -4.353,0.763Zm-157.136,6.666c-6.439,-7.704 -11.731,-16.4 -15.614,-25.825c-0.656,-1.594 -2.485,-2.356 -4.079,-1.699c-1.595,0.657 -2.356,2.485 -1.699,4.08c4.126,10.018 9.752,19.262 16.596,27.452c1.106,1.324 3.079,1.5 4.402,0.394c1.324,-1.106 1.5,-3.078 0.394,-4.402Zm175.067,-64.615c-0.057,-5.33 -0.534,-10.56 -1.401,-15.658c-0.289,-1.7 0.857,-3.316 2.557,-3.605c1.701,-0.289 3.316,0.857 3.605,2.557c0.982,5.779 1.494,11.717 1.494,17.774c0,11.047 -1.703,21.699 -4.858,31.709c-0.519,1.645 -2.275,2.559 -3.92,2.041c-1.645,-0.519 -2.56,-2.276 -2.041,-3.921c2.969,-9.416 4.569,-19.437 4.569,-29.829l-0.005,-1.068Zm-197.763,9.462c-0.232,-2.768 -0.351,-5.567 -0.351,-8.394c0,-7.461 0.825,-14.73 2.389,-21.722c0.376,-1.683 -0.685,-3.355 -2.368,-3.732c-1.683,-0.376 -3.355,0.685 -3.732,2.368c-1.662,7.431 -2.539,15.156 -2.539,23.086c0,3.003 0.126,5.977 0.373,8.917c0.144,1.718 1.656,2.997 3.375,2.852c1.719,-0.144 2.997,-1.656 2.853,-3.375Zm169.068,-78.155c7.083,7.155 13.085,15.383 17.741,24.417c0.79,1.533 2.676,2.137 4.21,1.347c1.533,-0.791 2.136,-2.677 1.346,-4.21c-4.948,-9.602 -11.327,-18.346 -18.855,-25.951c-1.213,-1.226 -3.193,-1.236 -4.419,-0.022c-1.226,1.213 -1.236,3.193 -0.023,4.419Zm-156.012,19.952c5.106,-8.769 11.518,-16.684 18.967,-23.479c1.275,-1.162 1.366,-3.141 0.203,-4.415c-1.162,-1.274 -3.14,-1.365 -4.414,-0.203c-7.917,7.221 -14.731,15.633 -20.157,24.952c-0.868,1.491 -0.362,3.406 1.128,4.273c1.491,0.868 3.406,0.363 4.273,-1.128Zm103.256,-47.771c10.123,1.82 19.713,5.181 28.52,9.832c1.526,0.806 3.418,0.221 4.223,-1.304c0.806,-1.525 0.221,-3.417 -1.304,-4.222c-9.367,-4.947 -19.567,-8.522 -30.333,-10.458c-1.698,-0.305 -3.323,0.826 -3.629,2.523c-0.305,1.698 0.826,3.324 2.523,3.629Zm-59.165,7.571c9.014,-4.18 18.76,-7.044 28.991,-8.342c1.711,-0.218 2.924,-1.783 2.707,-3.494c-0.217,-1.711 -1.783,-2.924 -3.494,-2.707c-10.881,1.382 -21.247,4.427 -30.834,8.874c-1.564,0.725 -2.245,2.585 -1.52,4.149c0.726,1.565 2.585,2.246 4.15,1.52Z" style="fill:#fff;"/><path d="M6901.13,835.701c0,56.443 -45.788,102.268 -102.185,102.268c-56.397,0 -102.184,-45.825 -102.184,-102.268c0,-56.444 45.787,-102.268 102.184,-102.268c56.397,0 102.185,45.824 102.185,102.268Z"/><path d="M6832.74,928.913c-9.298,3.383 -19.245,5.41 -29.6,5.843c-1.723,0.072 -3.063,1.53 -2.991,3.253c0.072,1.723 1.529,3.064 3.253,2.991c11.011,-0.46 21.587,-2.616 31.475,-6.213c1.621,-0.59 2.458,-2.384 1.868,-4.005c-0.589,-1.621 -2.384,-2.458 -4.005,-1.869Zm-59.596,2.531c-9.89,-2.667 -19.169,-6.829 -27.581,-12.229c-1.452,-0.932 -3.386,-0.51 -4.318,0.941c-0.932,1.452 -0.51,3.387 0.941,4.318c8.946,5.743 18.814,10.169 29.331,13.004c1.665,0.449 3.382,-0.538 3.831,-2.204c0.449,-1.665 -0.539,-3.382 -2.204,-3.83Zm106.918,-38.862c-5.814,8.286 -12.862,15.642 -20.876,21.801c-1.368,1.051 -1.625,3.014 -0.574,4.382c1.051,1.367 3.014,1.624 4.382,0.573c8.516,-6.544 16.006,-14.362 22.184,-23.166c0.991,-1.412 0.649,-3.363 -0.763,-4.353c-1.412,-0.991 -3.362,-0.649 -4.353,0.763Zm-157.135,6.666c-6.439,-7.704 -11.732,-16.4 -15.614,-25.825c-0.657,-1.594 -2.485,-2.356 -4.08,-1.699c-1.594,0.657 -2.356,2.485 -1.699,4.08c4.127,10.018 9.752,19.262 16.597,27.452c1.106,1.324 3.078,1.5 4.402,0.394c1.323,-1.106 1.5,-3.078 0.394,-4.402Zm175.066,-64.615c-0.056,-5.33 -0.533,-10.56 -1.4,-15.658c-0.289,-1.701 0.856,-3.316 2.557,-3.605c1.7,-0.289 3.315,0.857 3.604,2.557c0.921,5.418 1.429,10.975 1.489,16.639l0.006,1.135c0,11.047 -1.703,21.699 -4.859,31.709c-0.518,1.645 -2.275,2.559 -3.92,2.04c-1.645,-0.518 -2.559,-2.275 -2.04,-3.92c2.968,-9.416 4.569,-19.437 4.569,-29.829l-0.006,-1.068Zm-197.763,9.462c-0.232,-2.768 -0.35,-5.567 -0.35,-8.394c0,-7.461 0.825,-14.73 2.388,-21.722c0.377,-1.683 -0.684,-3.355 -2.367,-3.732c-1.683,-0.376 -3.356,0.685 -3.732,2.368c-1.662,7.431 -2.539,15.156 -2.539,23.086c0,3.003 0.126,5.977 0.372,8.916c0.144,1.719 1.657,2.997 3.376,2.853c1.718,-0.144 2.997,-1.656 2.852,-3.375Zm169.069,-78.155c7.083,7.155 13.085,15.383 17.741,24.417c0.79,1.533 2.676,2.137 4.209,1.346c1.533,-0.79 2.136,-2.676 1.346,-4.209c-4.948,-9.602 -11.327,-18.346 -18.854,-25.951c-1.214,-1.226 -3.194,-1.236 -4.42,-0.022c-1.225,1.213 -1.236,3.193 -0.022,4.419Zm-156.012,19.952c5.106,-8.769 11.517,-16.684 18.967,-23.479c1.274,-1.163 1.365,-3.141 0.203,-4.415c-1.162,-1.274 -3.141,-1.365 -4.415,-0.203c-7.917,7.221 -14.73,15.633 -20.156,24.952c-0.868,1.491 -0.362,3.406 1.128,4.273c1.49,0.868 3.405,0.363 4.273,-1.128Zm103.256,-47.771c10.122,1.82 19.713,5.181 28.52,9.832c1.525,0.806 3.417,0.221 4.223,-1.304c0.805,-1.525 0.221,-3.417 -1.304,-4.222c-9.367,-4.947 -19.568,-8.522 -30.333,-10.458c-1.698,-0.305 -3.324,0.826 -3.629,2.523c-0.305,1.698 0.825,3.324 2.523,3.629Zm-59.165,7.571c9.014,-4.18 18.76,-7.044 28.991,-8.343c1.711,-0.217 2.924,-1.782 2.706,-3.493c-0.217,-1.711 -1.782,-2.924 -3.493,-2.707c-10.881,1.382 -21.247,4.427 -30.834,8.873c-1.565,0.726 -2.246,2.586 -1.52,4.15c0.726,1.565 2.585,2.246 4.15,1.52Z" style="fill:#fff;"/><path d="M6901.13,8535.76c0,56.443 -45.788,102.268 -102.185,102.268c-56.397,0 -102.184,-45.825 -102.184,-102.268c0,-56.444 45.787,-102.268 102.184,-102.268c56.397,0 102.185,45.824 102.185,102.268Z"/><path d="M6832.74,8628.97c-9.298,3.383 -19.245,5.41 -29.6,5.843c-1.723,0.072 -3.063,1.53 -2.991,3.253c0.072,1.723 1.529,3.064 3.253,2.992c11.011,-0.461 21.587,-2.617 31.475,-6.214c1.621,-0.59 2.458,-2.384 1.868,-4.005c-0.589,-1.621 -2.384,-2.458 -4.005,-1.869Zm-59.596,2.531c-9.89,-2.667 -19.169,-6.829 -27.581,-12.229c-1.452,-0.932 -3.386,-0.51 -4.318,0.941c-0.932,1.452 -0.51,3.387 0.941,4.318c8.946,5.743 18.814,10.169 29.331,13.004c1.665,0.449 3.382,-0.538 3.831,-2.204c0.449,-1.665 -0.539,-3.381 -2.204,-3.83Zm106.918,-38.862c-5.814,8.286 -12.862,15.642 -20.876,21.801c-1.368,1.051 -1.625,3.014 -0.574,4.382c1.051,1.367 3.014,1.624 4.382,0.573c8.516,-6.544 16.006,-14.361 22.184,-23.166c0.991,-1.412 0.649,-3.363 -0.763,-4.353c-1.412,-0.991 -3.362,-0.649 -4.353,0.763Zm-157.135,6.666c-6.439,-7.704 -11.732,-16.4 -15.614,-25.825c-0.657,-1.594 -2.485,-2.356 -4.08,-1.699c-1.594,0.657 -2.356,2.485 -1.699,4.08c4.127,10.018 9.752,19.262 16.597,27.452c1.106,1.324 3.078,1.5 4.402,0.394c1.323,-1.106 1.5,-3.078 0.394,-4.402Zm175.072,-63.547c0,-5.7 -0.482,-11.288 -1.406,-16.726c-0.289,-1.7 0.856,-3.316 2.557,-3.605c1.7,-0.289 3.315,0.857 3.604,2.557c0.983,5.779 1.495,11.717 1.495,17.774c0,11.047 -1.703,21.699 -4.859,31.709c-0.518,1.645 -2.275,2.559 -3.92,2.041c-1.645,-0.519 -2.559,-2.276 -2.04,-3.921c2.968,-9.416 4.569,-19.437 4.569,-29.829Zm-197.769,8.394c-0.232,-2.768 -0.35,-5.567 -0.35,-8.394c0,-7.461 0.825,-14.73 2.388,-21.722c0.377,-1.683 -0.684,-3.355 -2.367,-3.732c-1.683,-0.376 -3.356,0.685 -3.732,2.368c-1.662,7.431 -2.539,15.156 -2.539,23.086c0,3.003 0.126,5.977 0.372,8.917c0.144,1.718 1.657,2.997 3.376,2.852c1.718,-0.144 2.997,-1.656 2.852,-3.375Zm169.069,-78.155c7.083,7.155 13.085,15.383 17.741,24.417c0.79,1.533 2.676,2.137 4.209,1.347c1.533,-0.791 2.136,-2.677 1.346,-4.21c-4.948,-9.602 -11.327,-18.346 -18.854,-25.951c-1.214,-1.226 -3.194,-1.236 -4.42,-0.022c-1.225,1.213 -1.236,3.193 -0.022,4.419Zm-156.012,19.952c5.106,-8.769 11.517,-16.684 18.967,-23.479c1.274,-1.162 1.365,-3.141 0.203,-4.415c-1.162,-1.274 -3.141,-1.365 -4.415,-0.203c-7.917,7.221 -14.73,15.633 -20.156,24.952c-0.868,1.491 -0.362,3.406 1.128,4.273c1.49,0.868 3.405,0.363 4.273,-1.128Zm103.256,-47.771c10.122,1.82 19.713,5.181 28.52,9.832c1.525,0.806 3.417,0.221 4.223,-1.304c0.805,-1.525 0.221,-3.417 -1.304,-4.222c-9.367,-4.947 -19.568,-8.522 -30.333,-10.458c-1.698,-0.305 -3.324,0.826 -3.629,2.523c-0.305,1.698 0.825,3.324 2.523,3.629Zm-59.165,7.571c9.014,-4.18 18.76,-7.044 28.991,-8.342c1.711,-0.218 2.924,-1.783 2.706,-3.494c-0.217,-1.711 -1.782,-2.924 -3.493,-2.707c-10.881,1.382 -21.247,4.427 -30.834,8.874c-1.565,0.725 -2.246,2.585 -1.52,4.149c0.726,1.565 2.585,2.246 4.15,1.52Z" style="fill:#fff;"/><path d="M8678.1,4245.89l-9.48,-19.583l19.812,-9.591c3.882,8.019 7.09,14.648 9.59,19.812l-4.875,2.36l8.581,7.385l-14.356,16.684c0,0 -4.937,-4.248 -13.766,-11.845l4.494,-5.222Zm-87.918,-66.56c5.734,4.934 11.304,9.727 16.685,14.357l14.356,-16.685c-5.38,-4.63 -10.951,-9.423 -16.685,-14.357l-14.356,16.685Zm112.925,1.681c-0.233,-6.96 -0.478,-14.309 -0.734,-21.999l-21.999,0.734c0.256,7.689 0.501,15.039 0.734,21.999l21.999,-0.734Zm-82.439,-53.764c3.313,6.844 6.511,13.45 9.59,19.812l19.812,-9.591c-3.079,-6.361 -6.277,-12.967 -9.59,-19.812l-19.812,9.591Zm-113.91,-19.699c5.602,4.82 11.169,9.61 16.685,14.357l14.356,-16.685c-5.516,-4.746 -11.082,-9.536 -16.685,-14.357l-14.356,16.685Zm192.679,-36.531c-0.241,-7.237 -0.486,-14.577 -0.734,-21.999l-21.999,0.734c0.248,7.422 0.493,14.762 0.734,21.999l21.999,-0.734Zm-276.103,-35.251c5.528,4.757 11.095,9.546 16.685,14.356l14.356,-16.684c-5.59,-4.81 -11.156,-9.6 -16.684,-14.357l-14.357,16.685Zm149.382,-7.579c3.258,6.729 6.455,13.334 9.59,19.811l19.812,-9.59c-3.135,-6.477 -6.332,-13.082 -9.59,-19.812l-19.812,9.591Zm-232.806,-64.203c5.413,4.658 10.983,9.45 16.685,14.357l14.356,-16.685c-5.702,-4.907 -11.271,-9.699 -16.684,-14.357l-14.357,16.685Zm355.858,-2.961c-0.245,-7.341 -0.49,-14.68 -0.734,-21.999l-21.999,0.734c0.244,7.319 0.489,14.658 0.734,21.999l21.999,-0.734Zm-171.004,-31.896c3.237,6.686 6.434,13.291 9.591,19.812l19.812,-9.59c-3.157,-6.522 -6.354,-13.126 -9.591,-19.813l-19.812,9.591Zm-268.278,-36.925c4.292,3.693 9.919,8.534 16.685,14.356l14.356,-16.685c-6.766,-5.821 -12.393,-10.663 -16.685,-14.356l-14.356,16.685Zm80.338,-68.957c-6.892,3.336 -13.513,6.541 -19.812,9.591l9.59,19.812c6.299,-3.05 12.921,-6.255 19.812,-9.591l-9.59,-19.812Zm355.275,27.784c-0.249,-7.457 -0.494,-14.798 -0.734,-22l-21.999,0.734c0.24,7.202 0.485,14.543 0.734,21.999l21.999,-0.733Zm-215.287,-20.962c3.226,6.663 6.423,13.267 9.59,19.812l19.812,-9.591c-3.167,-6.544 -6.364,-13.148 -9.59,-19.812l-19.812,9.591Zm-40.928,-54.774c-6.645,3.217 -13.258,6.418 -19.812,9.591l9.59,19.812c6.554,-3.173 13.167,-6.374 19.812,-9.591l-9.59,-19.812Zm99.06,-47.952c-6.504,3.149 -13.118,6.35 -19.812,9.591l9.59,19.812c6.694,-3.241 13.308,-6.442 19.812,-9.591l-9.59,-19.812Zm-106.083,3.666c3.218,6.649 6.415,13.254 9.59,19.812l19.812,-9.59c-3.175,-6.559 -6.372,-13.163 -9.59,-19.812l-19.812,9.59Zm259.568,10.027c-0.263,-7.888 -0.508,-15.246 -0.733,-21.999l-21.999,0.734c0.225,6.753 0.47,14.111 0.734,21.999l21.998,-0.734Zm-54.425,-61.644c-6.011,2.909 -12.647,6.121 -19.812,9.59l9.59,19.812c7.166,-3.469 13.801,-6.681 19.812,-9.59l-9.59,-19.812Zm-253.095,-47.443c3.213,6.639 6.41,13.243 9.59,19.812l19.812,-9.591c-3.18,-6.568 -6.377,-13.172 -9.59,-19.811l-19.812,9.59Zm-47.952,-99.059c3.21,6.632 6.407,13.236 9.59,19.812l19.812,-9.591c-3.183,-6.575 -6.38,-13.179 -9.59,-19.811l-19.812,9.59Zm-47.952,-99.06c3.208,6.626 6.405,13.231 9.59,19.812l19.812,-9.591c-3.185,-6.581 -6.382,-13.185 -9.59,-19.811l-19.812,9.59Zm-47.951,-99.058c3.205,6.621 6.402,13.225 9.59,19.81l19.812,-9.59c-3.188,-6.586 -6.385,-13.189 -9.59,-19.811l-19.812,9.591Zm-47.953,-99.062c3.204,6.619 6.401,13.223 9.591,19.813l19.812,-9.59c-3.19,-6.59 -6.387,-13.195 -9.591,-19.813l-19.812,9.59Zm-47.951,-99.058c3.202,6.614 6.399,13.218 9.59,19.811l19.812,-9.59c-3.191,-6.593 -6.388,-13.197 -9.59,-19.812l-19.812,9.591Zm-47.952,-99.061c3.2,6.612 6.397,13.216 9.59,19.812l19.812,-9.591c-3.193,-6.596 -6.39,-13.2 -9.59,-19.811l-19.812,9.59Zm-47.951,-99.059c3.199,6.609 6.396,13.213 9.59,19.812l19.812,-9.59c-3.194,-6.599 -6.391,-13.203 -9.59,-19.812l-19.812,9.59Zm-47.952,-99.06c3.198,6.607 6.395,13.211 9.59,19.813l19.812,-9.591c-3.195,-6.601 -6.392,-13.206 -9.59,-19.812l-19.812,9.59Zm-47.953,-99.061c3.197,6.604 6.394,13.208 9.591,19.812l19.812,-9.59c-3.197,-6.604 -6.394,-13.208 -9.591,-19.812l-19.812,9.59Zm-47.951,-99.059c3.195,6.601 6.392,13.205 9.59,19.812l19.812,-9.591c-3.198,-6.606 -6.395,-13.21 -9.59,-19.811l-19.812,9.59Zm-47.953,-99.061c3.195,6.599 6.392,13.203 9.591,19.813l19.812,-9.59c-3.199,-6.61 -6.396,-13.215 -9.591,-19.814l-19.812,9.591Zm-47.953,-99.063c3.193,6.596 6.39,13.2 9.591,19.813l19.812,-9.591c-3.201,-6.612 -6.398,-13.216 -9.591,-19.812l-19.812,9.59Zm-47.952,-99.06c3.191,6.592 6.388,13.196 9.59,19.81l19.812,-9.59c-3.202,-6.615 -6.399,-13.218 -9.59,-19.81l-19.812,9.59Zm-47.953,-99.062c3.19,6.59 6.387,13.195 9.592,19.814l19.812,-9.59c-3.205,-6.62 -6.402,-13.225 -9.592,-19.815l-19.812,9.591Zm-47.953,-99.062c3.188,6.586 6.385,13.19 9.591,19.813l19.812,-9.59c-3.206,-6.623 -6.403,-13.228 -9.591,-19.814l-19.812,9.591Zm-47.953,-99.063c3.186,6.581 6.383,13.185 9.591,19.813l19.812,-9.591c-3.208,-6.627 -6.405,-13.231 -9.591,-19.812l-19.812,9.59Zm-47.952,-99.06c3.183,6.576 6.38,13.18 9.591,19.813l19.812,-9.59c-3.211,-6.633 -6.408,-13.238 -9.591,-19.813l-19.812,9.59Zm-47.953,-99.062c3.18,6.568 6.377,13.173 9.591,19.814l19.812,-9.591c-3.214,-6.641 -6.412,-13.245 -9.591,-19.813l-19.812,9.59Zm-47.952,-99.06c3.175,6.558 6.372,13.163 9.592,19.814l19.812,-9.59c-3.22,-6.652 -6.417,-13.257 -9.592,-19.814l-19.812,9.59Zm-47.951,-99.058c3.167,6.542 6.364,13.146 9.591,19.812l19.812,-9.59c-3.227,-6.666 -6.424,-13.27 -9.591,-19.812l-19.812,9.59Zm-47.952,-99.061c3.154,6.517 6.351,13.121 9.59,19.812l19.812,-9.59c-3.239,-6.691 -6.436,-13.296 -9.59,-19.813l-19.812,9.591Zm-47.953,-99.061c3.131,6.468 6.329,13.073 9.591,19.812l19.812,-9.59c-3.262,-6.739 -6.46,-13.344 -9.591,-19.812l-19.812,9.59Zm-47.952,-99.061c3.064,6.329 6.262,12.935 9.59,19.811l19.812,-9.59c-3.328,-6.876 -6.526,-13.482 -9.59,-19.812l-19.812,9.591Zm-47.951,-99.059c0,0 3.301,6.821 9.59,19.812l19.812,-9.59c-6.289,-12.991 -9.59,-19.812 -9.59,-19.812l-19.812,9.59Z"/><path id="path4807-4-2-4-4-8-6-5-3-7-8" d="M7260.8,7159.19l-264.072,149.748m0,0l434.867,159.765m-453.033,-621.438l18.166,461.673m-18.166,-461.673l282.238,311.925m181.041,-463.89l-463.279,151.965m463.279,-151.965l-182.436,-2.473m0,0l-280.843,154.438m463.279,-151.965l-181.041,463.89m468.891,-51.436l-298.096,360.949m-170.795,-309.513l170.795,309.513m10.246,-773.403l205.608,130.192m0,0l82.242,282.262m-468.891,51.436l468.891,-51.436m-287.85,-412.454l287.85,412.454" style="fill:none;stroke:#000;stroke-width:5.45px;stroke-miterlimit:4;"/><path id="path4182-2-8-1-8-6" d="M6482.44,1723.95l392.432,336.918m-1.857,-750.188l-390.575,413.27l390.575,-413.27Zm0,0l356.96,378.481l-356.96,-378.481Zm0,0l112.083,493l-112.083,-493Zm356.96,378.481l-355.103,371.707l355.103,-371.707Zm0,0l-244.877,114.519l244.877,-114.519Zm-244.877,114.519l-110.226,257.188l110.226,-257.188Zm-502.658,-79.73l502.658,79.73l-502.658,-79.73Z" style="fill:none;stroke:#000;stroke-width:5.45px;stroke-miterlimit:4;"/><path id="path4311-6-2-6-9-9-1" d="M2546.27,5222.89l305.778,-44.421m0,0l123.965,-75.411m-630.931,-109.145l201.188,228.977m327.382,-337.459c-2.754,5.51 -21.604,293.038 -21.604,293.038m-555.498,-323.571l48.532,139.015m176.145,-237.034l352.425,128.552m153.923,-206.938l39.345,164.24m-90.907,260.325l90.907,-260.325m-39.345,-164.24l-153.923,206.938m-352.425,-128.552c-2.755,5.509 -176.145,237.034 -176.145,237.034m478.078,-522.024l204.415,206.604m-493.847,-180.904l289.432,-25.7m-427.505,125.87l138.073,-100.17m-12.501,259.29l12.501,-259.29m-138.073,100.17l-99.105,257.139" style="fill:none;stroke:#000;stroke-width:5.45px;stroke-miterlimit:4;"/><g><path id="path4654-2-0-2-3-6" d="M5538.7,4820.94l313.146,308.143m-313.146,-308.143l-85.846,-528.46m-480.001,744.511l565.847,-216.051" style="fill:none;stroke:#000;stroke-width:5.45px;stroke-linecap:butt;stroke-linejoin:miter;stroke-miterlimit:4;"/><path id="path4657-6-2-4-2-5-4" d="M5454.02,4292.48c0,0 -487.653,748.328 -480.082,748.328c7.571,0 882.841,93.038 882.841,93.038l-402.759,-841.366Z" style="fill:none;stroke:#000;stroke-opacity:0.5;stroke-width:8.75px;stroke-linecap:butt;stroke-miterlimit:1.41421;"/></g><path id="path4720-1-1-3-5-5" d="M10279.6,4534.48l-285.898,87.274m-426.339,-72.944l426.339,72.944m-100.459,-131.986l-325.88,59.042m325.88,-59.042l386.357,44.712m0,0l-30.667,448.572m0,0l-262.47,199.316m7.239,-560.614l-7.239,560.614m-386.14,-159.21l-32.96,-474.348m419.1,633.558l-386.14,-159.21" style="fill:none;stroke:#000;stroke-width:5.45px;stroke-linejoin:bevel;stroke-miterlimit:4;"/><text x="1741.03px" y="4955.13px" style="font-family:'LucidaGrande', 'Lucida Grande', sans-serif;font-weight:500;font-size:512.5px;">0</text><text x="7623.53px" y="1107.65px" style="font-family:'LucidaGrande', 'Lucida Grande', sans-serif;font-weight:500;font-size:512.5px;">3</text><text x="9241.15px" y="4304.97px" style="font-family:'LucidaGrande', 'Lucida Grande', sans-serif;font-weight:500;font-size:512.5px;">4</text><text x="6642.45px" y="7935.87px" style="font-family:'LucidaGrande', 'Lucida Grande', sans-serif;font-weight:500;font-size:512.5px;">2</text><text x="3931.65px" y="4960.64px" style="font-family:'LucidaGrande', 'Lucida Grande', sans-serif;font-weight:500;font-size:512.5px;">1</text></svg>