<?xml version="1.0" encoding="UTF-8" standalone="no"?><!DOCTYPE svg PUBLIC "-//W3C//DTD SVG 1.1//EN" "http://www.w3.org/Graphics/SVG/1.1/DTD/svg11.dtd"><svg width="100%" height="100%" viewBox="0 0 13668 9327" version="1.1" xmlns="http://www.w3.org/2000/svg" xmlns:xlink="http://www.w3.org/1999/xlink" xml:space="preserve" xmlns:serif="http://www.serif.com/" style="fill-rule:evenodd;clip-rule:evenodd;stroke-linecap:round;stroke-linejoin:round;stroke-miterlimit:1.5;"><rect id="Mesa-de-trabajo1" serif:id="Mesa de trabajo1" x="0" y="0" width="13667.6" height="9326.44" style="fill:none;"/><circle cx="4632.23" cy="4685.33" r="4414.64" style="fill:none;stroke:#000;stroke-width:8.33px;"/><path d="M4641.68,4684.18c0.634,-2436.45 1979.24,-4414.02 4415.69,-4413.39c2436.45,0.635 4414.02,1979.24 4413.39,4415.69c-0.635,2436.45 -1979.24,4414.02 -4415.69,4413.39c-2436.45,-0.634 -4414.02,-1979.24 -4413.39,-4415.69Z" style="fill:url(#_Radial1);"/><path d="M9227.47,4685.33c0,31.627 -25.656,57.304 -57.258,57.304c-31.601,0 -57.257,-25.677 -57.257,-57.304c0,-31.627 25.656,-57.305 57.257,-57.305c31.602,0 57.258,25.678 57.258,57.305Z" style="fill:#fff;"/><text x="5177.82px" y="4892.47px" style="font-family:'Montserrat-Regular', 'Montserrat';font-size:665.131px;">3</text><text x="6623.28px" y="4892.75px" style="font-family:'Montserrat-Regular', 'Montserrat';font-size:665.131px;">2</text><text x="8138.29px" y="4892.47px" style="font-family:'Montserrat-Regular', 'Montserrat';font-size:665.131px;">1</text><text x="1133.68px" y="4892.75px" style="font-family:'Montserrat-Regular', 'Montserrat';font-size:665.131px;">0</text><text x="11022.6px" y="4892.47px" style="font-family:'Montserrat-Regular', 'Montserrat';font-size:665.131px;fill:#fff;">4</text><defs><radialGradient id="_Radial1" cx="0" cy="0" r="1" gradientUnits="userSpaceOnUse" gradientTransform="matrix(-4349.08,5.32685e-13,-5.32463e-13,-4349.08,4869.66,4686.48)"><stop offset="0" style="stop-color:#fff;stop-opacity:1"/><stop offset="0.59" style="stop-color:#d5d5d5;stop-opacity:1"/><stop offset="0.8" style="stop-color:#7a7a7a;stop-opacity:1"/><stop offset="1" style="stop-color:#1f1f1f;stop-opacity:1"/></radialGradient></defs></svg>